<?xml version="1.0" encoding="UTF-8"?>
<svg version="1.1" xmlns="http://www.w3.org/2000/svg" width="128" height="128">
<path d="M0 0 C42.24 0 84.48 0 128 0 C128 42.24 128 84.48 128 128 C85.76 128 43.52 128 0 128 C0 85.76 0 43.52 0 0 Z " fill="#DFD8C7" transform="translate(0,0)"/>
<path d="M0 0 C10.76214518 -0.11624578 21.52413911 -0.20489317 32.28678608 -0.25906086 C37.28524894 -0.28506892 42.28327983 -0.32030502 47.28149414 -0.37719727 C52.1120594 -0.43183232 56.94221118 -0.46148653 61.77306175 -0.47438622 C63.60894459 -0.48356988 65.44480677 -0.50150268 67.28051186 -0.52865028 C86.37237672 -0.79956624 86.37237672 -0.79956624 95 5 C97.75390625 7.68359375 97.75390625 7.68359375 99.5625 10.4375 C100.49255859 11.79681641 100.49255859 11.79681641 101.44140625 13.18359375 C104.07018498 17.93384304 105.58425316 21.52440509 104.125 26.875 C103.92132813 27.65617187 103.71765625 28.43734375 103.5078125 29.2421875 C103.34023437 29.82226562 103.17265625 30.40234375 103 31 C102.01 31 101.02 31 100 31 C99.67 30.67 99.34 30.34 99 30 C100.02072449 33.48747535 101.15722743 36.25728125 103.0625 39.375 C105.371092 43.21697414 105.56445405 46.57194946 106 51 C106.99 52.98 106.99 52.98 108 55 C108.33 52.03 108.66 49.06 109 46 C109.99 46 110.98 46 112 46 C116.04412028 51.44400806 116.1790237 57.243111 116.5625 63.8125 C116.60568359 64.50537109 116.64886719 65.19824219 116.69335938 65.91210938 C116.79861453 67.60788686 116.89972863 69.30392052 117 71 C117.33 71 117.66 71 118 71 C118.14307226 84.13663473 116.8396517 96.83548851 113.5 109.5625 C113.28641846 110.3776709 113.07283691 111.1928418 112.8527832 112.03271484 C111.27140662 117.72859338 111.27140662 117.72859338 109 120 C109.01160156 119.43152344 109.02320312 118.86304687 109.03515625 118.27734375 C109.09223194 113.39329516 108.81956772 108.81496035 108 104 C107.01 105.32 106.02 106.64 105 108 C105.38462767 96.46117001 105.38462767 96.46117001 108 92.1875 C112.12220189 85.06733311 111.57020182 74.79107772 110 67 C102.21038876 66.53469136 95.47321608 67.84278299 88 70 C88 72.97 88 75.94 88 79 C88.33 76.69 88.66 74.38 89 72 C91.64 71.67 94.28 71.34 97 71 C98.485 72.98 98.485 72.98 100 75 C100.495 73.515 100.495 73.515 101 72 C100.34 72 99.68 72 99 72 C99 71.34 99 70.68 99 70 C102.63 69.67 106.26 69.34 110 69 C110.32781799 88.99689762 110.32781799 88.99689762 106 95 C96.6151164 103.95624709 82.47098774 107.87769933 69.75 108.4375 C64.79653401 108.28452532 60.07061659 107.33053674 55.25 106.25 C54.54069336 106.09329834 53.83138672 105.93659668 53.10058594 105.77514648 C48.16879319 104.56991798 44.22965941 102.83425187 40 100 C39.1106103 97.27253827 38.97198229 95.8064406 39 93 C38.98710938 91.82308594 38.97421875 90.64617187 38.9609375 89.43359375 C38.93987343 85.95451217 38.95657538 82.47879424 39 79 C44.37529632 76.69630158 48.97285549 75.86714284 54.8125 75.9375 C56.27623047 75.95103516 56.27623047 75.95103516 57.76953125 75.96484375 C58.50558594 75.97644531 59.24164063 75.98804687 60 76 C60 76.99 60 77.98 60 79 C60.66 79 61.32 79 62 79 C62.125 81.375 62.125 81.375 62 84 C60 86 60 86 57.3984375 86.1953125 C56.40070312 86.17210938 55.40296875 86.14890625 54.375 86.125 C53.37210938 86.10695313 52.36921875 86.08890625 51.3359375 86.0703125 C50.56507812 86.04710938 49.79421875 86.02390625 49 86 C48.67 85.34 48.34 84.68 48 84 C48 84.99 48 85.98 48 87 C49.77049689 87.05410687 51.54146849 87.09284119 53.3125 87.125 C54.29863281 87.14820312 55.28476562 87.17140625 56.30078125 87.1953125 C59.22406527 87.20682639 59.22406527 87.20682639 62 85 C62.57748803 83.03638136 62.57748803 83.03638136 62.6875 80.875 C62.790625 79.59625 62.89375 78.3175 63 77 C62.01 76.505 62.01 76.505 61 76 C62.98 75.505 62.98 75.505 65 75 C65.33 75.66 65.66 76.32 66 77 C66.66 77 67.32 77 68 77 C69.03013277 75.35178756 70.03114628 73.68496298 71 72 C71.33 72 71.66 72 72 72 C72 70.35 72 68.7 72 67 C70.68 69.97 69.36 72.94 68 76 C67.34 76 66.68 76 66 76 C65.85900879 75.22398438 65.71801758 74.44796875 65.57275391 73.6484375 C64.92619655 70.09846164 64.27563149 66.54923133 63.625 63 C63.40328125 61.77925781 63.1815625 60.55851562 62.953125 59.30078125 C61.82082747 53.13975055 60.61898532 47.05228155 59 41 C59 43.31 59 45.62 59 48 C59.33 48 59.66 48 60 48 C60.495 53.445 60.495 53.445 61 59 C57.7 59 54.4 59 51 59 C51.33 57.35 51.66 55.7 52 54 C50.14226147 57.45008583 48.67769796 60.83623872 47.5 64.5625 C46.3917698 68.0337819 45.05760903 70.96257715 43 74 C41.4727775 70.945555 42.43325416 68.01350414 42.9375 64.75 C43.64375398 60.01669517 44 55.82146179 44 51 C42.68 56.28 41.36 61.56 40 67 C39.67 67 39.34 67 39 67 C38.8925336 60.39753314 39.28754907 53.99878797 40 47.4375 C40.09539063 46.52419922 40.19078125 45.61089844 40.2890625 44.66992188 C40.52191875 42.44614468 40.75895855 40.22290224 41 38 C40.01 38.66 39.02 39.32 38 40 C34.3125 39.625 34.3125 39.625 31 39 C31.52026366 34.61492059 32.09863876 30.32501905 33 26 C32.34822031 28.18573562 31.70385326 30.3736823 31.0625 32.5625 C30.70285156 33.78066406 30.34320312 34.99882813 29.97265625 36.25390625 C28.36996967 42.42650236 27.79918307 48.58687996 27.4375 54.9375 C27.37381226 56.02599243 27.37381226 56.02599243 27.30883789 57.13647461 C26.89996724 64.75858037 26.90757416 72.36973355 27 80 C27.66 80 28.32 80 29 80 C29 82.64 29 85.28 29 88 C28.34 87.67 27.68 87.34 27 87 C26.67 89.64 26.34 92.28 26 95 C25.67 95 25.34 95 25 95 C25 91.37 25 87.74 25 84 C24.67 87.3 24.34 90.6 24 94 C20 92 20 92 18 89 C17.8046875 86.73828125 17.8046875 86.73828125 17.875 84.3125 C17.89304687 83.50425781 17.91109375 82.69601563 17.9296875 81.86328125 C17.95289062 81.24839844 17.97609375 80.63351563 18 80 C17.34 81.98 16.68 83.96 16 86 C10.877273 81.56030327 9.87035167 76.51263148 9 70 C8.88570211 66.87351297 8.9050724 63.7530158 8.9375 60.625 C8.94201172 59.79355469 8.94652344 58.96210937 8.95117188 58.10546875 C8.96286836 56.07028103 8.98080065 54.03513077 9 52 C11.46728428 55.25200793 13.75333364 58.59126484 16 62 C15.66226562 61.40832031 15.32453125 60.81664062 14.9765625 60.20703125 C14.53054688 59.41683594 14.08453125 58.62664063 13.625 57.8125 C13.18414062 57.03519531 12.74328125 56.25789063 12.2890625 55.45703125 C8.20205833 47.6669536 8.51742665 40.82015937 10.68359375 32.31640625 C15.19662921 19.78019665 24.51423671 10.74623955 35 3 C29.70769231 7.06153846 29.70769231 7.06153846 26.125 6.75 C25.42375 6.5025 24.7225 6.255 24 6 C24.66 5.34 25.32 4.68 26 4 C20.06 3.34 14.12 2.68 8 2 C7.67 2.99 7.34 3.98 7 5 C6.21625 4.79375 5.4325 4.5875 4.625 4.375 C3.325625 4.189375 3.325625 4.189375 2 4 C1.34 4.66 0.68 5.32 0 6 C0 4.02 0 2.04 0 0 Z " fill="#FBF7EA" transform="translate(0,0)"/>
<path d="M0 0 C2.78216867 2.78216867 3.1415213 5.96854344 4 9.6875 C6.36981435 20.27232212 6.36981435 20.27232212 11 30 C11 30.66 11 31.32 11 32 C11.99 32 12.98 32 14 32 C13.34 28.7 12.68 25.4 12 22 C12.66 22 13.32 22 14 22 C14.33 20.68 14.66 19.36 15 18 C15.12117188 18.74765625 15.24234375 19.4953125 15.3671875 20.265625 C15.53476563 21.25046875 15.70234375 22.2353125 15.875 23.25 C16.03742188 24.22453125 16.19984375 25.1990625 16.3671875 26.203125 C16.95074829 29.29950817 16.95074829 29.29950817 19 33 C19.33 30.03 19.66 27.06 20 24 C20.99 24 21.98 24 23 24 C27.04412028 29.44400806 27.1790237 35.243111 27.5625 41.8125 C27.60568359 42.50537109 27.64886719 43.19824219 27.69335938 43.91210938 C27.79861453 45.60788686 27.89972863 47.30392052 28 49 C28.33 49 28.66 49 29 49 C29.14307226 62.13663473 27.8396517 74.83548851 24.5 87.5625 C24.28641846 88.3776709 24.07283691 89.1928418 23.8527832 90.03271484 C22.27140662 95.72859338 22.27140662 95.72859338 20 98 C20.01160156 97.43152344 20.02320312 96.86304687 20.03515625 96.27734375 C20.09223194 91.39329516 19.81956772 86.81496035 19 82 C18.01 83.32 17.02 84.64 16 86 C16.38462767 74.46117001 16.38462767 74.46117001 19 70.1875 C23.12220189 63.06733311 22.57020182 52.79107772 21 45 C13.21038876 44.53469136 6.47321608 45.84278299 -1 48 C-1 50.97 -1 53.94 -1 57 C-0.67 54.69 -0.34 52.38 0 50 C2.64 49.67 5.28 49.34 8 49 C8.99 50.32 9.98 51.64 11 53 C11.33 52.01 11.66 51.02 12 50 C11.34 50 10.68 50 10 50 C10 49.34 10 48.68 10 48 C15.445 47.505 15.445 47.505 21 47 C21.32781799 66.99689762 21.32781799 66.99689762 17 73 C7.6151164 81.95624709 -6.52901226 85.87769933 -19.25 86.4375 C-24.20346599 86.28452532 -28.92938341 85.33053674 -33.75 84.25 C-34.45930664 84.09329834 -35.16861328 83.93659668 -35.89941406 83.77514648 C-40.83120681 82.56991798 -44.77034059 80.83425187 -49 78 C-49.8893897 75.27253827 -50.02801771 73.8064406 -50 71 C-50.01289062 69.82308594 -50.02578125 68.64617187 -50.0390625 67.43359375 C-50.06012657 63.95451217 -50.04342462 60.47879424 -50 57 C-44.62470368 54.69630158 -40.02714451 53.86714284 -34.1875 53.9375 C-33.21167969 53.94652344 -32.23585938 53.95554688 -31.23046875 53.96484375 C-30.12638672 53.98224609 -30.12638672 53.98224609 -29 54 C-29 54.99 -29 55.98 -29 57 C-28.34 57 -27.68 57 -27 57 C-26.875 59.375 -26.875 59.375 -27 62 C-29 64 -29 64 -31.6015625 64.1953125 C-32.59929688 64.17210938 -33.59703125 64.14890625 -34.625 64.125 C-35.62789062 64.10695313 -36.63078125 64.08890625 -37.6640625 64.0703125 C-38.43492188 64.04710938 -39.20578125 64.02390625 -40 64 C-40.33 63.34 -40.66 62.68 -41 62 C-41 62.99 -41 63.98 -41 65 C-39.22950311 65.05410687 -37.45853151 65.09284119 -35.6875 65.125 C-34.70136719 65.14820312 -33.71523438 65.17140625 -32.69921875 65.1953125 C-29.77593473 65.20682639 -29.77593473 65.20682639 -27 63 C-26.42251197 61.03638136 -26.42251197 61.03638136 -26.3125 58.875 C-26.209375 57.59625 -26.10625 56.3175 -26 55 C-26.66 54.67 -27.32 54.34 -28 54 C-26.02 53.505 -26.02 53.505 -24 53 C-23.67 53.66 -23.34 54.32 -23 55 C-22.34 55 -21.68 55 -21 55 C-20.54625 54.195625 -20.0925 53.39125 -19.625 52.5625 C-18 50 -18 50 -16 49.4375 C-15.34 49.293125 -14.68 49.14875 -14 49 C-12.24577228 47.02329393 -12.24577228 47.02329393 -11 45 C-10.505 46.98 -10.505 46.98 -10 49 C-7.5978396 44.1956792 -7.38877771 39.26896105 -7 34 C-6.67 34 -6.34 34 -6 34 C-5.505 36.97 -5.505 36.97 -5 40 C-4.9728955 36.95827281 -4.95311036 33.91679003 -4.9375 30.875 C-4.92493164 29.59109375 -4.92493164 29.59109375 -4.91210938 28.28125 C-4.89461694 23.73321589 -5.06807642 19.47616836 -6 15 C-3.27136433 17.72863567 -2.52914606 20.91006895 -1.375 24.5 C-1.03082031 25.53447266 -1.03082031 25.53447266 -0.6796875 26.58984375 C1 31.71888951 1 31.71888951 1 34 C2.32 34 3.64 34 5 34 C4.72160883 24.31198728 3.41576014 15.59564143 0.83984375 6.265625 C0 3 0 3 0 0 Z " fill="#FAF3E9" transform="translate(89,22)"/>
<path d="M0 0 C9.57 0 19.14 0 29 0 C29 34.65 29 69.3 29 105 C25.7 104.67 22.4 104.34 19 104 C19.66 93.11 20.32 82.22 21 71 C22.77706209 73.66559313 23.87548273 76.0280615 25 79 C24.88406494 78.29504395 24.76812988 77.59008789 24.64868164 76.86376953 C24.11676265 73.61802698 23.58960478 70.3715277 23.0625 67.125 C22.88009766 66.01640625 22.69769531 64.9078125 22.50976562 63.765625 C21.44592101 57.18913099 20.56247111 50.63884939 20 44 C20.66 44 21.32 44 22 44 C22.66 44.99 23.32 45.98 24 47 C22.12437022 36.12134726 17.97701297 25.61866308 11 17 C11.515625 17.7425 12.03125 18.485 12.5625 19.25 C14 22 14 22 13.6875 24.3125 C13.460625 24.869375 13.23375 25.42625 13 26 C8.81588995 24.60529665 8.41437187 22.4933497 6.4375 18.625 C4.72276363 15.29878019 3.07629698 12.11444547 1 9 C2.98 9.495 2.98 9.495 5 10 C4.360625 9.649375 3.72125 9.29875 3.0625 8.9375 C1 7 1 7 0 0 Z " fill="#F9F8F6" transform="translate(99,0)"/>
<path d="M0 0 C4.95 0 9.9 0 15 0 C15.66 2.31 16.32 4.62 17 7 C18.97343865 8.94321211 18.97343865 8.94321211 21 10 C20.67 10.99 20.34 11.98 20 13 C19.67 12.67 19.34 12.34 19 12 C22.465 18.435 22.465 18.435 26 25 C26.66 24.01 27.32 23.02 28 22 C27.01 20.68 26.02 19.36 25 18 C25.33 17.34 25.66 16.68 26 16 C34.04440638 25.50386672 39.16760708 37.60021575 40 50 C37 46.25 37 46.25 37 44 C36.34 44 35.68 44 35 44 C35.11069824 44.54188965 35.22139648 45.0837793 35.33544922 45.64208984 C37.84855416 58.06116932 39.8291371 70.3824116 41 83 C38.3144406 80.3144406 37.93950026 77.62378672 37 74 C36.94465088 74.73114014 36.88930176 75.46228027 36.83227539 76.21557617 C36.57883794 79.53979998 36.3207169 82.86364417 36.0625 86.1875 C35.97548828 87.33798828 35.88847656 88.48847656 35.79882812 89.67382812 C35.71181641 90.78564453 35.62480469 91.89746094 35.53515625 93.04296875 C35.456604 94.06414795 35.37805176 95.08532715 35.29711914 96.13745117 C35.01957735 98.81138499 34.5754276 101.37579723 34 104 C37.3 104.33 40.6 104.66 44 105 C44 107.97 44 110.94 44 114 C37.07 113.505 37.07 113.505 30 113 C29.34 114.65 28.68 116.3 28 118 C26.72717171 114.18151514 27.74190641 111.71864274 28.8125 108 C30.51812025 101.67731564 31.59276603 95.45235564 32.25 88.9375 C32.32968018 88.15310547 32.40936035 87.36871094 32.49145508 86.56054688 C32.91226675 82.02141108 33.07263376 77.55776844 33 73 C32.67 73 32.34 73 32 73 C31.96261719 71.87722656 31.92523438 70.75445312 31.88671875 69.59765625 C31.42872097 58.00943935 31.42872097 58.00943935 28 47 C27.34 46.67 26.68 46.34 26 46 C25.67 50.62 25.34 55.24 25 60 C24.67 60 24.34 60 24 60 C22.1891047 55.11058268 20.84029136 50.41425436 20.0625 45.25 C19.31247375 40.71202603 18.08387102 38.4693549 15 35 C13.79247978 31.49819137 13 28.70268156 13 25 C16 28.75 16 28.75 16 31 C16.99 31 17.98 31 19 31 C20.30690325 24.75062629 20.68213494 20.23261303 17.3125 14.625 C16.23067875 13.06757169 15.12892276 11.52363169 14 10 C13.4225 9.05125 12.845 8.1025 12.25 7.125 C8.75738473 3.82641891 4.4954385 2.53565552 0 1 C0 0.67 0 0.34 0 0 Z " fill="#BEB19D" transform="translate(84,0)"/>
<path d="M0 0 C0.33 0.99 0.66 1.98 1 3 C2.97536745 2.65213292 2.97536745 2.65213292 5 2 C5.33 1.34 5.66 0.68 6 0 C13.03482474 -0.23668569 19.1834265 0.2120463 26 2 C25.01 2.66 24.02 3.32 23 4 C26.05391002 3.56372714 28.01989388 2.98797114 30.6875 1.375 C31.450625 0.92125 32.21375 0.4675 33 0 C33.66 0.33 34.32 0.66 35 1 C34.154375 1.60585938 33.30875 2.21171875 32.4375 2.8359375 C20.44122023 11.61940219 10.81360255 21.47070299 8.328125 36.63671875 C8.21984375 37.41660156 8.1115625 38.19648437 8 39 C7.835 40.11375 7.67 41.2275 7.5 42.375 C8.17684474 47.28212438 10.32167516 51.01268525 12.6875 55.328125 C14 58 14 58 14 61 C11.58603766 58.10324519 9.61382757 55.40212299 8 52 C7.00555836 67.91826901 7.00555836 67.91826901 13 82 C13.99 80.02 14.98 78.04 16 76 C17.32 76.33 18.64 76.66 20 77 C18.515 77.495 18.515 77.495 17 78 C16.67 80.97 16.34 83.94 16 87 C10.80782636 84.62643491 8.03440664 81.23560532 6 76 C5.30612113 72.48410861 4.92612971 68.94189397 4.63208008 65.37231445 C4.47910791 63.57569159 4.24616051 61.78624164 4 60 C3.34 59.67 2.68 59.34 2 59 C2 58.34 2 57.68 2 57 C2.66 57 3.32 57 4 57 C3.505 55.515 3.505 55.515 3 54 C1.35 55.32 -0.3 56.64 -2 58 C-2.05067075 50.38284136 -2.08572127 42.76572613 -2.10986328 35.1484375 C-2.11992668 32.5566241 -2.13357864 29.96482207 -2.15087891 27.37304688 C-2.17511195 23.64971106 -2.18647974 19.92652523 -2.1953125 16.203125 C-2.20563507 15.04258606 -2.21595764 13.88204712 -2.22659302 12.68634033 C-2.22674408 11.60552185 -2.22689514 10.52470337 -2.22705078 9.41113281 C-2.231492 8.46071106 -2.23593323 7.51028931 -2.24050903 6.53106689 C-1.98989712 3.89367942 -1.34166934 2.26168661 0 0 Z " fill="#9E8A7B" transform="translate(2,2)"/>
<path d="M0 0 C2.78216867 2.78216867 3.1415213 5.96854344 4 9.6875 C6.36981435 20.27232212 6.36981435 20.27232212 11 30 C11 30.66 11 31.32 11 32 C11.99 32 12.98 32 14 32 C13.34 28.7 12.68 25.4 12 22 C12.66 22 13.32 22 14 22 C14.33 20.68 14.66 19.36 15 18 C15.12117188 18.74765625 15.24234375 19.4953125 15.3671875 20.265625 C15.53476563 21.25046875 15.70234375 22.2353125 15.875 23.25 C16.03742188 24.22453125 16.19984375 25.1990625 16.3671875 26.203125 C16.95074829 29.29950817 16.95074829 29.29950817 19 33 C19.33 30.03 19.66 27.06 20 24 C20.99 24 21.98 24 23 24 C27.04412028 29.44400806 27.1790237 35.243111 27.5625 41.8125 C27.60568359 42.50537109 27.64886719 43.19824219 27.69335938 43.91210938 C27.79861453 45.60788686 27.89972863 47.30392052 28 49 C28.33 49 28.66 49 29 49 C29.14307226 62.13663473 27.8396517 74.83548851 24.5 87.5625 C24.28641846 88.3776709 24.07283691 89.1928418 23.8527832 90.03271484 C22.27140662 95.72859338 22.27140662 95.72859338 20 98 C20.01160156 97.43152344 20.02320312 96.86304687 20.03515625 96.27734375 C20.09223194 91.39329516 19.81956772 86.81496035 19 82 C18.01 83.32 17.02 84.64 16 86 C16.38462767 74.46117001 16.38462767 74.46117001 19 70.1875 C23.12220189 63.06733311 22.57020182 52.79107772 21 45 C13.42183242 44.54732185 6.13660614 45.25602011 -1 48 C-1.66 48.99 -2.32 49.98 -3 51 C-3.66 51 -4.32 51 -5 51 C-5 49.02 -5 47.04 -5 45 C-5.66 45 -6.32 45 -7 45 C-7.103125 46.0725 -7.20625 47.145 -7.3125 48.25 C-7.97400493 51.85820872 -8.57483421 53.36395023 -11 56 C-11.125 53.125 -11.125 53.125 -11 50 C-10.34 49.34 -9.68 48.68 -9 48 C-8.54152311 45.63969304 -8.17856869 43.2601826 -7.875 40.875 C-7.70742187 39.59367187 -7.53984375 38.31234375 -7.3671875 36.9921875 C-7.24601562 36.00476562 -7.12484375 35.01734375 -7 34 C-6.67 34 -6.34 34 -6 34 C-5.67 35.98 -5.34 37.96 -5 40 C-4.9728955 36.95827281 -4.95311036 33.91679003 -4.9375 30.875 C-4.92912109 30.0190625 -4.92074219 29.163125 -4.91210938 28.28125 C-4.89461694 23.73321589 -5.06807642 19.47616836 -6 15 C-3.27136433 17.72863567 -2.52914606 20.91006895 -1.375 24.5 C-1.14554688 25.18964844 -0.91609375 25.87929688 -0.6796875 26.58984375 C1 31.71888951 1 31.71888951 1 34 C2.32 34 3.64 34 5 34 C4.72160883 24.31198728 3.41576014 15.59564143 0.83984375 6.265625 C0 3 0 3 0 0 Z " fill="#F8F3E5" transform="translate(89,22)"/>
<path d="M0 0 C0.495 1.485 0.495 1.485 1 3 C5.29 3.33 9.58 3.66 14 4 C14 8.62 14 13.24 14 18 C-14.71 18 -43.42 18 -73 18 C-73 17.01 -73 16.02 -73 15 C-63.20738011 12.80379965 -53.39220549 10.9267642 -43.49682617 9.26513672 C-41.1987646 8.87690304 -38.90320431 8.47568044 -36.60742188 8.07421875 C-26.40907269 6.3332064 -16.33661938 5.39500916 -6 5 C-6.33 8.63 -6.66 12.26 -7 16 C-2.97356196 8.21979601 -2.97356196 8.21979601 0 0 Z " fill="#E4D7CA" transform="translate(114,110)"/>
<path d="M0 0 C0.5625 1.9375 0.5625 1.9375 1 4 C0.67 4.33 0.34 4.66 0 5 C0.66 5.66 1.32 6.32 2 7 C2.31581482 9.52944274 2.55142998 12.0242572 2.75 14.5625 C3.7889806 24.93379408 8.28926396 31.2410533 16.25 37.875 C18.55416769 40.67291791 18.32054355 42.47402095 18 46 C16.68 46.66 15.36 47.32 14 48 C14 45.03 14 42.06 14 39 C13.34 39 12.68 39 12 39 C12.13019531 39.66386719 12.26039062 40.32773438 12.39453125 41.01171875 C12.820836 43.74086601 13.10966304 46.23733491 13 49 C10.6875 52.125 10.6875 52.125 8 54 C7.34 54 6.68 54 6 54 C4.61061923 55.96147874 3.2739589 57.96166576 2 60 C2.495 59.505 2.495 59.505 3 59 C3.99 58.34 4.98 57.68 6 57 C6 60.25 6 60.25 5 64 C2.07118362 66.2336248 -1.26770676 68 -5 68 C-5.11596849 59.87226579 -5.20475177 51.74487852 -5.25906086 43.61652088 C-5.28512982 39.8419499 -5.32047629 36.06794586 -5.37719727 32.29370117 C-5.43161681 28.64969519 -5.46144086 25.00623369 -5.47438622 21.36185265 C-5.48360857 19.97314573 -5.50161853 18.58446785 -5.52865028 17.19599342 C-5.56506071 15.24790256 -5.56704339 13.29926109 -5.56762695 11.35083008 C-5.57873001 10.2427449 -5.58983307 9.13465973 -5.60127258 7.99299622 C-4.81286679 4.06849403 -2.99047865 2.55189116 0 0 Z " fill="#F6F3E5" transform="translate(5,55)"/>
<path d="M0 0 C0.33 0 0.66 0 1 0 C1 2.97 1 5.94 1 9 C1.33 7.35 1.66 5.7 2 4 C2.33 4 2.66 4 3 4 C3.11593506 4.87213135 3.23187012 5.7442627 3.35131836 6.64282227 C3.78529377 9.90620457 4.21957317 13.16954612 4.65405273 16.43286133 C4.84134741 17.8400719 5.02852406 19.24729818 5.21557617 20.65454102 C5.4858479 22.68770515 5.7565567 24.7208107 6.02734375 26.75390625 C6.27085571 28.58417358 6.27085571 28.58417358 6.51928711 30.45141602 C6.99595881 33.97016828 7.49341465 37.48544091 8 41 C8.66 41 9.32 41 10 41 C10.495 45.455 10.495 45.455 11 50 C-0.88 50 -12.76 50 -25 50 C-25 48.35 -25 46.7 -25 45 C-23.71086513 44.32845067 -22.41859796 43.66291141 -21.125 43 C-20.40570312 42.62875 -19.68640625 42.2575 -18.9453125 41.875 C-17 41 -17 41 -15 41 C-15 39.02 -15 37.04 -15 35 C-15.66 35.99 -16.32 36.98 -17 38 C-17.66 37.67 -18.32 37.34 -19 37 C-15.52554745 30.17518248 -15.52554745 30.17518248 -12.9375 29.3125 C-12.298125 29.209375 -11.65875 29.10625 -11 29 C-8.75334094 27.07429224 -8.0553139 25.68259712 -7.81640625 22.734375 C-7.81286396 20.48147862 -7.87025684 18.24888146 -8 16 C-7.34 16 -6.68 16 -6 16 C-5.67 18.64 -5.34 21.28 -5 24 C-4.01 23.67 -3.02 23.34 -2 23 C-2 21.02 -2 19.04 -2 17 C-2.639375 16.7525 -3.27875 16.505 -3.9375 16.25 C-6 15 -6 15 -6.75 12.875 C-6.8325 12.25625 -6.915 11.6375 -7 11 C-5.02 12.65 -3.04 14.3 -1 16 C-1.01160156 15.34773438 -1.02320312 14.69546875 -1.03515625 14.0234375 C-1.08470994 9.2238086 -0.99413751 4.72215315 0 0 Z " fill="#B5BE97" transform="translate(25,78)"/>
<path d="M0 0 C0.33 0 0.66 0 1 0 C3.04062423 11.24873024 4.98247512 22.75700768 -1.078125 33.01171875 C-2.82175537 36.77234528 -2.83226884 40.90735963 -3 45 C-2.01 44.01 -1.02 43.02 0 42 C0.06058594 43.04800781 0.12117188 44.09601563 0.18359375 45.17578125 C0.26801738 46.55470048 0.35266447 47.93360605 0.4375 49.3125 C0.47681641 50.00279297 0.51613281 50.69308594 0.55664062 51.40429688 C0.74927415 54.47161535 1.02322717 57.06968152 2 60 C0.0625 63.1875 0.0625 63.1875 -2 66 C-3.09898702 62.70303895 -2.87124444 61.59505097 -2.0625 58.3125 C-1.86785156 57.50425781 -1.67320313 56.69601563 -1.47265625 55.86328125 C-1.31667969 55.24839844 -1.16070312 54.63351563 -1 54 C-1.69561035 54.09087891 -2.3912207 54.18175781 -3.10791016 54.27539062 C-6.27977661 54.6875272 -9.45236613 55.09381504 -12.625 55.5 C-13.71941406 55.64308594 -14.81382813 55.78617188 -15.94140625 55.93359375 C-17.53662109 56.13662109 -17.53662109 56.13662109 -19.1640625 56.34375 C-20.13811035 56.46943359 -21.1121582 56.59511719 -22.11572266 56.72460938 C-25.09489105 57.00906019 -28.00915797 57.04655007 -31 57 C-29.75 55.5 -29.75 55.5 -28 54 C-26.68 54 -25.36 54 -24 54 C-23.690625 53.05125 -23.38125 52.1025 -23.0625 51.125 C-22 48 -22 48 -21 46 C-21.66 45.34 -22.32 44.68 -23 44 C-22.05898437 43.62488281 -21.11796875 43.24976563 -20.1484375 42.86328125 C-9.47404417 38.97525162 -9.47404417 38.97525162 -1.9296875 30.9921875 C-0.57113085 26.61969005 -0.26714253 22.23571045 0.125 17.6875 C0.21136719 16.75615234 0.29773438 15.82480469 0.38671875 14.86523438 C0.59790011 12.57743634 0.79986388 10.28879072 1 8 C-2.63 8.33 -6.26 8.66 -10 9 C-10 9.66 -10 10.32 -10 11 C-9.34 11 -8.68 11 -8 11 C-8.33 13.64 -8.66 16.28 -9 19 C-9.33 19 -9.66 19 -10 19 C-9.95875 18.2575 -9.9175 17.515 -9.875 16.75 C-10.00398134 13.91241048 -10.57051222 12.41226062 -12 10 C-14.64 10.33 -17.28 10.66 -20 11 C-20 13.97 -20 16.94 -20 20 C-22 18 -22 18 -22.1953125 15.8359375 C-22.16050781 14.61777344 -22.16050781 14.61777344 -22.125 13.375 C-22.10695313 12.55773437 -22.08890625 11.74046875 -22.0703125 10.8984375 C-22.04710938 10.27195312 -22.02390625 9.64546875 -22 9 C-15.86926853 5.79529946 -9.89801068 5.04033924 -3 5 C-2.01 5.33 -1.02 5.66 0 6 C0 4.02 0 2.04 0 0 Z " fill="#87725E" transform="translate(109,61)"/>
<path d="M0 0 C4.3206251 2.88041673 4.93290911 6.0290797 6 11 C6.52169824 15.99836595 6.80808884 20.97722167 7 26 C7.33 26 7.66 26 8 26 C8.14307226 39.13663473 6.8396517 51.83548851 3.5 64.5625 C3.17962769 65.78525635 3.17962769 65.78525635 2.8527832 67.03271484 C1.27140662 72.72859338 1.27140662 72.72859338 -1 75 C-0.98839844 74.43152344 -0.97679688 73.86304687 -0.96484375 73.27734375 C-0.90776806 68.39329516 -1.18043228 63.81496035 -2 59 C-2.99 60.32 -3.98 61.64 -5 63 C-4.61537233 51.46117001 -4.61537233 51.46117001 -2 47.1875 C2.12220189 40.06733311 1.57020182 29.79107772 0 22 C-1.32 21.67 -2.64 21.34 -4 21 C-3.34 21 -2.68 21 -2 21 C-1.97494385 20.39937744 -1.9498877 19.79875488 -1.92407227 19.17993164 C-1.8084472 16.47388563 -1.68557064 13.76821717 -1.5625 11.0625 C-1.52318359 10.11697266 -1.48386719 9.17144531 -1.44335938 8.19726562 C-1.40146484 7.29814453 -1.35957031 6.39902344 -1.31640625 5.47265625 C-1.27974854 4.64000244 -1.24309082 3.80734863 -1.20532227 2.94946289 C-1 1 -1 1 0 0 Z " fill="#F7F3E3" transform="translate(110,45)"/>
<path d="M0 0 C1 3 1 3 1 5 C2.32 4.67 3.64 4.34 5 4 C5 4.66 5 5.32 5 6 C5.66 6 6.32 6 7 6 C7 12.6 7 19.2 7 26 C7.33 26 7.66 26 8 26 C8.33 29.63 8.66 33.26 9 37 C5.7 37 2.4 37 -1 37 C-0.67 35.35 -0.34 33.7 0 32 C-1.85773853 35.45008583 -3.32230204 38.83623872 -4.5 42.5625 C-5.6082302 46.0337819 -6.94239097 48.96257715 -9 52 C-10.52030707 48.95938587 -9.56770521 46.0602478 -9.0625 42.8125 C-8.30939293 37.81007356 -7.88841345 33.06077801 -8 28 C-7.34 28 -6.68 28 -6 28 C-5.88930176 27.36497559 -5.77860352 26.72995117 -5.66455078 26.07568359 C-5.1560819 23.1746067 -4.64060426 20.27481687 -4.125 17.375 C-3.95097656 16.37597656 -3.77695312 15.37695312 -3.59765625 14.34765625 C-2.71563102 9.41484848 -1.78256817 4.70533761 0 0 Z " fill="#F1EDDE" transform="translate(52,22)"/>
<path d="M0 0 C4.95 0 9.9 0 15 0 C15.66 2.31 16.32 4.62 17 7 C18.97343865 8.94321211 18.97343865 8.94321211 21 10 C20.67 10.99 20.34 11.98 20 13 C19.67 12.67 19.34 12.34 19 12 C19.5775 13.05960938 20.155 14.11921875 20.75 15.2109375 C21.50021788 16.59884058 22.25020601 17.98686787 23 19.375 C23.3815625 20.07367187 23.763125 20.77234375 24.15625 21.4921875 C27 26.7734375 27 26.7734375 27 29 C27.598125 29.04125 28.19625 29.0825 28.8125 29.125 C31 30 31 30 32.8125 32.9375 C33.204375 33.948125 33.59625 34.95875 34 36 C33.505 36.99 33.505 36.99 33 38 C32.67 37.01 32.34 36.02 32 35 C31.34 35 30.68 35 30 35 C29.67 36.65 29.34 38.3 29 40 C28.01 40 27.02 40 26 40 C26.66 41.32 27.32 42.64 28 44 C28.66 43.01 29.32 42.02 30 41 C31 42 31 42 31.0625 45.0625 C31.041875 46.031875 31.02125 47.00125 31 48 C29.35 47.34 27.7 46.68 26 46 C25.67 50.62 25.34 55.24 25 60 C24.67 60 24.34 60 24 60 C22.1891047 55.11058268 20.84029136 50.41425436 20.0625 45.25 C19.31247375 40.71202603 18.08387102 38.4693549 15 35 C13.79247978 31.49819137 13 28.70268156 13 25 C16 28.75 16 28.75 16 31 C16.99 31 17.98 31 19 31 C20.30690325 24.75062629 20.68213494 20.23261303 17.3125 14.625 C16.23067875 13.06757169 15.12892276 11.52363169 14 10 C13.4225 9.05125 12.845 8.1025 12.25 7.125 C8.75738473 3.82641891 4.4954385 2.53565552 0 1 C0 0.67 0 0.34 0 0 Z " fill="#8C7761" transform="translate(84,0)"/>
<path d="M0 0 C0.33 0 0.66 0 1 0 C1 2.97 1 5.94 1 9 C1.33 7.35 1.66 5.7 2 4 C2.33 4 2.66 4 3 4 C3.11593506 4.87213135 3.23187012 5.7442627 3.35131836 6.64282227 C3.78529377 9.90620457 4.21957317 13.16954612 4.65405273 16.43286133 C4.84134741 17.8400719 5.02852406 19.24729818 5.21557617 20.65454102 C5.4858479 22.68770515 5.7565567 24.7208107 6.02734375 26.75390625 C6.27085571 28.58417358 6.27085571 28.58417358 6.51928711 30.45141602 C6.99595881 33.97016828 7.49341465 37.48544091 8 41 C8.66 41 9.32 41 10 41 C10.33 43.97 10.66 46.94 11 50 C10.67 49.34 10.34 48.68 10 48 C8.7625 48.2475 8.7625 48.2475 7.5 48.5 C3.58727683 49.05896045 -0.05183173 49.06807187 -4 49 C-3.0409375 48.566875 -3.0409375 48.566875 -2.0625 48.125 C0.15206079 47.17176549 0.15206079 47.17176549 1 45 C2.65 45.33 4.3 45.66 6 46 C6 45.34 6 44.68 6 44 C0.43930418 41.74566386 -5.0785651 41.40038172 -11 41 C-11 40.67 -11 40.34 -11 40 C-5.39 40 0.22 40 6 40 C4.35 39.01 2.7 38.02 1 37 C-0.109375 34.84375 -0.109375 34.84375 -0.75 32.5 C-0.97171875 31.7265625 -1.1934375 30.953125 -1.421875 30.15625 C-1.61265625 29.4446875 -1.8034375 28.733125 -2 28 C-2.33 27.01 -2.66 26.02 -3 25 C-9.20507614 29.58379734 -12.34588823 33.40142404 -14 41 C-13.34 41.33 -12.68 41.66 -12 42 C-12.66 42 -13.32 42 -14 42 C-14.33 42.99 -14.66 43.98 -15 45 C-15 44.34 -15 43.68 -15 43 C-17.97 43.495 -17.97 43.495 -21 44 C-17.25 41 -17.25 41 -15 41 C-15 39.02 -15 37.04 -15 35 C-15.66 35.99 -16.32 36.98 -17 38 C-17.66 37.67 -18.32 37.34 -19 37 C-15.52554745 30.17518248 -15.52554745 30.17518248 -12.9375 29.3125 C-12.298125 29.209375 -11.65875 29.10625 -11 29 C-8.75334094 27.07429224 -8.0553139 25.68259712 -7.81640625 22.734375 C-7.81286396 20.48147862 -7.87025684 18.24888146 -8 16 C-7.34 16 -6.68 16 -6 16 C-5.67 18.64 -5.34 21.28 -5 24 C-4.01 23.67 -3.02 23.34 -2 23 C-2 21.02 -2 19.04 -2 17 C-2.639375 16.7525 -3.27875 16.505 -3.9375 16.25 C-6 15 -6 15 -6.75 12.875 C-6.8325 12.25625 -6.915 11.6375 -7 11 C-5.02 12.65 -3.04 14.3 -1 16 C-1.01160156 15.34773438 -1.02320312 14.69546875 -1.03515625 14.0234375 C-1.08470994 9.2238086 -0.99413751 4.72215315 0 0 Z " fill="#83735A" transform="translate(25,78)"/>
<path d="M0 0 C3.27146109 0.64268021 6.54205181 1.28968675 9.8125 1.9375 C11.2056543 2.21110352 11.2056543 2.21110352 12.62695312 2.49023438 C13.51962891 2.66748047 14.41230469 2.84472656 15.33203125 3.02734375 C16.15421143 3.18968506 16.9763916 3.35202637 17.82348633 3.51928711 C20 4 20 4 23 5 C24.89470816 5.0685495 26.7916834 5.08480372 28.6875 5.0625 C29.68136719 5.05347656 30.67523438 5.04445313 31.69921875 5.03515625 C32.45847656 5.02355469 33.21773437 5.01195313 34 5 C33.67 7.97 33.34 10.94 33 14 C22.85622211 15.85969261 22.85622211 15.85969261 18.5625 13.87109375 C16.55630853 12.35505133 14.77075652 10.7835264 13 9 C11.7625 7.824375 11.7625 7.824375 10.5 6.625 C10.005 6.08875 9.51 5.5525 9 5 C10.07826365 6.27513763 11.16285519 7.54492569 12.25 8.8125 C12.85328125 9.52019531 13.4565625 10.22789063 14.078125 10.95703125 C15.92370398 12.91889671 17.79945332 14.45669625 20 16 C14.99738448 16.78988666 14.99738448 16.78988666 12 16 C9.18735913 13.30704597 7.1545924 10.22606538 5 7 C4.34 6.34 3.68 5.68 3 5 C3.61488281 5.92232422 3.61488281 5.92232422 4.2421875 6.86328125 C7.62109375 11.93164062 7.62109375 11.93164062 11 17 C8.03 17.66 5.06 18.32 2 19 C1.6592518 17.14718166 1.32778217 15.29265605 1 13.4375 C0.814375 12.40496094 0.62875 11.37242188 0.4375 10.30859375 C-0.0217793 6.83529403 -0.07060629 3.49942416 0 0 Z " fill="#F9F5EC" transform="translate(42,104)"/>
<path d="M0 0 C-0.33 1.65 -0.66 3.3 -1 5 C-1.86278564 5.11593506 -2.72557129 5.23187012 -3.61450195 5.35131836 C-6.81843431 5.78324375 -10.02200044 6.21776757 -13.2253418 6.65405273 C-14.61126842 6.842269 -15.9973358 7.0294519 -17.38354492 7.21557617 C-19.37715858 7.48343899 -21.37022848 7.75533903 -23.36328125 8.02734375 C-24.56251221 8.18968506 -25.76174316 8.35202637 -26.99731445 8.51928711 C-30.0396073 8.92304551 -30.0396073 8.92304551 -33 10 C-35.46228282 10.20759293 -37.90860206 10.37291682 -40.375 10.5 C-41.80994128 10.58123238 -43.24483681 10.66327665 -44.6796875 10.74609375 C-45.76008301 10.80772705 -45.76008301 10.80772705 -46.86230469 10.87060547 C-51.91313004 11.17633153 -56.95641421 11.59409498 -62 12 C-62.33 11.01 -62.66 10.02 -63 9 C-50.33128937 6.18298236 -37.58936748 4.10094317 -24.75 2.25 C-23.98247406 2.13749908 -23.21494812 2.02499817 -22.42416382 1.90908813 C-20.19511721 1.58385336 -17.96503683 1.26707023 -15.734375 0.953125 C-14.43725586 0.76911133 -13.14013672 0.58509766 -11.80371094 0.39550781 C-7.81475794 -0.01926137 -4.0059564 -0.06785986 0 0 Z " fill="#F3ECE2" transform="translate(108,115)"/>
<path d="M0 0 C0.66 0 1.32 0 2 0 C2.10957031 0.96679688 2.21914062 1.93359375 2.33203125 2.9296875 C3.17804014 9.87658977 4.10151384 16.33543371 6.51171875 22.94921875 C7.09160079 25.38472333 6.86081039 26.66487347 6 29 C5.34 29.99 4.68 30.98 4 32 C4.33 31.67 4.66 31.34 5 31 C5.99 30.34 6.98 29.68 8 29 C8 32.25 8 32.25 7 36 C4.07118362 38.2336248 0.73229324 40 -3 40 C-3.0750148 35.91073151 -3.12900317 31.82173793 -3.16479492 27.73193359 C-3.17973947 26.34514373 -3.20010278 24.95839993 -3.22631836 23.57177734 C-3.3790891 15.27422942 -3.09696458 7.80933195 0 0 Z " fill="#F9F9F5" transform="translate(3,83)"/>
<path d="M0 0 C0.33 0.99 0.66 1.98 1 3 C5.29 3.33 9.58 3.66 14 4 C14 8.62 14 13.24 14 18 C7.4 18 0.8 18 -6 18 C-4.2177429 11.88940424 -2.30678315 5.9317281 0 0 Z " fill="#E8DDD2" transform="translate(114,110)"/>
<path d="M0 0 C8.25999351 6.8023476 13.48125534 19.51871194 14.6875 30 C14.8022897 31.33246081 14.9104227 32.66560711 15 34 C12 30.25 12 30.25 12 28 C11.34 28 10.68 28 10 28 C10.10699219 29.13179687 10.21398437 30.26359375 10.32421875 31.4296875 C10.44613108 32.91139121 10.56718016 34.39316612 10.6875 35.875 C10.76033203 36.62136719 10.83316406 37.36773437 10.90820312 38.13671875 C11.07421875 40.3046875 11.07421875 40.3046875 11 44 C10.01 44.66 9.02 45.32 8 46 C7.87882812 45.21753906 7.75765625 44.43507812 7.6328125 43.62890625 C7.46523437 42.61699219 7.29765625 41.60507812 7.125 40.5625 C6.96257812 39.55316406 6.80015625 38.54382812 6.6328125 37.50390625 C6.31957031 36.26447266 6.31957031 36.26447266 6 35 C5.34 34.67 4.68 34.34 4 34 C4 33.34 4 32.68 4 32 C4.66 32 5.32 32 6 32 C5.67 30.02 5.34 28.04 5 26 C4.34 26.99 3.68 27.98 3 29 C2.34 27.68 1.68 26.36 1 25 C0.34 25.33 -0.32 25.66 -1 26 C-1 25.01 -1 24.02 -1 23 C0.65 23.33 2.3 23.66 4 24 C4.33 22.35 4.66 20.7 5 19 C5.66 19 6.32 19 7 19 C6.21869929 16.50447516 6.21869929 16.50447516 5 14 C4.01 13.67 3.02 13.34 2 13 C1 10 1 10 1.9375 7.8125 C2.288125 7.214375 2.63875 6.61625 3 6 C2.2575 5.071875 2.2575 5.071875 1.5 4.125 C0 2 0 2 0 0 Z " fill="#E6E1D5" transform="translate(109,16)"/>
<path d="M0 0 C0.66 0.33 1.32 0.66 2 1 C2.12375 2.6396875 2.12375 2.6396875 2.25 4.3125 C2.73886161 9.60370804 5.21615121 13.75720963 7.72265625 18.36328125 C9 21 9 21 9 24 C6.58603766 21.10324519 4.61382757 18.40212299 3 15 C2.00555836 30.91826901 2.00555836 30.91826901 8 45 C8.99 43.02 9.98 41.04 11 39 C12.32 39.33 13.64 39.66 15 40 C13.515 40.495 13.515 40.495 12 41 C11.67 43.97 11.34 46.94 11 50 C5.80782636 47.62643491 3.03440664 44.23560532 1 39 C0.30612113 35.48410861 -0.07387029 31.94189397 -0.36791992 28.37231445 C-0.52089209 26.57569159 -0.75383949 24.78624164 -1 23 C-1.66 22.67 -2.32 22.34 -3 22 C-3 21.34 -3 20.68 -3 20 C-2.34 20 -1.68 20 -1 20 C-1.33 19.01 -1.66 18.02 -2 17 C-3.65 18.32 -5.3 19.64 -7 21 C-5.90312843 14.96720636 -4.7578177 9.90150135 -1 5 C-0.28566879 2.35065178 -0.28566879 2.35065178 0 0 Z " fill="#8F7F6C" transform="translate(7,39)"/>
<path d="M0 0 C0.5625 1.9375 0.5625 1.9375 1 4 C0.67 4.33 0.34 4.66 0 5 C0.66 5.66 1.32 6.32 2 7 C2.44921875 9.12890625 2.44921875 9.12890625 2.6875 11.5625 C2.77386719 12.36816406 2.86023438 13.17382812 2.94921875 14.00390625 C2.97435547 14.99197266 2.97435547 14.99197266 3 16 C2.67 16.33 2.34 16.66 2 17 C1.91251793 18.92667507 1.89302666 20.85651861 1.90234375 22.78515625 C1.90556641 23.95498047 1.90878906 25.12480469 1.91210938 26.33007812 C1.92048828 27.56177734 1.92886719 28.79347656 1.9375 30.0625 C1.94201172 31.29806641 1.94652344 32.53363281 1.95117188 33.80664062 C1.96300392 36.87114117 1.97948827 39.93554721 2 43 C0.12379699 39.53324426 -0.21940401 37.21496827 -0.125 33.25 C-0.10695313 32.26515625 -0.08890625 31.2803125 -0.0703125 30.265625 C-0.04710937 29.51796875 -0.02390625 28.7703125 0 28 C-0.66 28 -1.32 28 -2 28 C-2.66 31.3 -3.32 34.6 -4 38 C-4.33 38 -4.66 38 -5 38 C-5.12394421 33.39194479 -5.21449675 28.78486719 -5.2746582 24.17553711 C-5.29974547 22.60895886 -5.33382415 21.04249701 -5.37719727 19.47631836 C-5.43811226 17.21959691 -5.46626499 14.96442706 -5.48828125 12.70703125 C-5.51408768 12.01100296 -5.5398941 11.31497467 -5.56648254 10.59785461 C-5.56877939 6.58195528 -5.11140973 5.13127323 -2.46948242 2.01831055 C-1.65455322 1.35226807 -0.83962402 0.68622559 0 0 Z " fill="#EBE7D8" transform="translate(5,55)"/>
<path d="M0 0 C2.78216867 2.78216867 3.1415213 5.96854344 4 9.6875 C6.36981435 20.27232212 6.36981435 20.27232212 11 30 C11 30.66 11 31.32 11 32 C11.99 32 12.98 32 14 32 C14.33 31.01 14.66 30.02 15 29 C15.33 30.32 15.66 31.64 16 33 C15.360625 33.103125 14.72125 33.20625 14.0625 33.3125 C13.381875 33.539375 12.70125 33.76625 12 34 C11.67 34.99 11.34 35.98 11 37 C11 36.01 11 35.02 11 34 C8.03 34.66 5.06 35.32 2 36 C2.33 37.65 2.66 39.3 3 41 C0.77174356 38.77174356 0.30760631 37.34238372 -0.625 34.375 C-0.88539062 33.55773438 -1.14578125 32.74046875 -1.4140625 31.8984375 C-1.60742188 31.27195312 -1.80078125 30.64546875 -2 30 C-2.04898438 31.12019531 -2.09796875 32.24039063 -2.1484375 33.39453125 C-2.22347856 34.86721203 -2.29902582 36.33986707 -2.375 37.8125 C-2.42140625 38.91948242 -2.42140625 38.91948242 -2.46875 40.04882812 C-2.67346148 43.81893115 -2.86433827 45.79650741 -5 49 C-5 47.68 -5 46.36 -5 45 C-5.66 45 -6.32 45 -7 45 C-7.103125 46.0725 -7.20625 47.145 -7.3125 48.25 C-7.97400493 51.85820872 -8.57483421 53.36395023 -11 56 C-11.125 53.125 -11.125 53.125 -11 50 C-10.34 49.34 -9.68 48.68 -9 48 C-8.54152311 45.63969304 -8.17856869 43.2601826 -7.875 40.875 C-7.70742187 39.59367187 -7.53984375 38.31234375 -7.3671875 36.9921875 C-7.24601562 36.00476562 -7.12484375 35.01734375 -7 34 C-6.67 34 -6.34 34 -6 34 C-5.67 35.98 -5.34 37.96 -5 40 C-4.9728955 36.95827281 -4.95311036 33.91679003 -4.9375 30.875 C-4.92912109 30.0190625 -4.92074219 29.163125 -4.91210938 28.28125 C-4.89461694 23.73321589 -5.06807642 19.47616836 -6 15 C-3.27136433 17.72863567 -2.52914606 20.91006895 -1.375 24.5 C-1.14554688 25.18964844 -0.91609375 25.87929688 -0.6796875 26.58984375 C1 31.71888951 1 31.71888951 1 34 C2.32 34 3.64 34 5 34 C4.72160883 24.31198728 3.41576014 15.59564143 0.83984375 6.265625 C0 3 0 3 0 0 Z " fill="#B0A591" transform="translate(89,22)"/>
<path d="M0 0 C-2.80103499 8.29871858 -2.80103499 8.29871858 -7.3125 10.9375 C-8.529375 11.288125 -9.74625 11.63875 -11 12 C-12.051875 12.37125 -13.10375 12.7425 -14.1875 13.125 C-19.42169316 14.32629023 -24.648979 14.66611035 -30 15 C-29.67 14.34 -29.34 13.68 -29 13 C-29.55429687 12.55269531 -30.10859375 12.10539062 -30.6796875 11.64453125 C-37.87521968 5.6397188 -37.87521968 5.6397188 -39 1 C-38.34 1.70125 -37.68 2.4025 -37 3.125 C-36.00687762 4.09045881 -35.00607261 5.04804376 -34 6 C-33.44183594 6.55042969 -32.88367187 7.10085937 -32.30859375 7.66796875 C-27.14735818 12.20425304 -23.11759035 12.56304306 -16.34375 12.2109375 C-15.5703125 12.14132813 -14.796875 12.07171875 -14 12 C-13.67 9.03 -13.34 6.06 -13 3 C-13.99 3.495 -13.99 3.495 -15 4 C-16.54023996 4.06950541 -18.08334988 4.08452357 -19.625 4.0625 C-20.85089844 4.04896484 -20.85089844 4.04896484 -22.1015625 4.03515625 C-23.04128906 4.01775391 -23.04128906 4.01775391 -24 4 C-20.39498596 1.89936841 -16.60866225 1.11540414 -12.5625 0.3125 C-11.57926758 0.09883789 -11.57926758 0.09883789 -10.57617188 -0.11914062 C-6.74860362 -0.89079681 -3.76598497 -1.08117873 0 0 Z " fill="#84715D" transform="translate(89,106)"/>
<path d="M0 0 C0.33 0 0.66 0 1 0 C3.69585273 14.8606097 3.80167603 25.75862326 -4 39 C-4.99 38.34 -5.98 37.68 -7 37 C-5.73046875 35.53515625 -4.4609375 34.0703125 -3.19140625 32.60546875 C-1.06360701 29.73817207 -0.794478 26.78220302 -0.46484375 23.33203125 C-0.37783203 22.43935547 -0.29082031 21.54667969 -0.20117188 20.62695312 C-0.11416016 19.69818359 -0.02714844 18.76941406 0.0625 17.8125 C0.15337891 16.87212891 0.24425781 15.93175781 0.33789062 14.96289062 C0.56171111 12.64222563 0.78126402 10.32114976 1 8 C-2.63 8.33 -6.26 8.66 -10 9 C-10 9.66 -10 10.32 -10 11 C-9.34 11 -8.68 11 -8 11 C-8.33 13.64 -8.66 16.28 -9 19 C-9.33 19 -9.66 19 -10 19 C-9.95875 18.2575 -9.9175 17.515 -9.875 16.75 C-10.00398134 13.91241048 -10.57051222 12.41226062 -12 10 C-14.64 10.33 -17.28 10.66 -20 11 C-20 13.97 -20 16.94 -20 20 C-22 18 -22 18 -22.1953125 15.8359375 C-22.17210938 15.02382812 -22.14890625 14.21171875 -22.125 13.375 C-22.10695313 12.55773437 -22.08890625 11.74046875 -22.0703125 10.8984375 C-22.04710938 10.27195312 -22.02390625 9.64546875 -22 9 C-15.86926853 5.79529946 -9.89801068 5.04033924 -3 5 C-2.01 5.33 -1.02 5.66 0 6 C0 4.02 0 2.04 0 0 Z " fill="#816744" transform="translate(109,61)"/>
<path d="M0 0 C2 3 2 3 3 12 C-6.405 12.495 -6.405 12.495 -16 13 C-14.35 9.04 -12.7 5.08 -11 1 C-5.555 0.505 -5.555 0.505 0 0 Z " fill="#FBF6E9" transform="translate(61,60)"/>
<path d="M0 0 C4.62 0.99 9.24 1.98 14 3 C14 3.33 14 3.66 14 4 C12.35 4 10.7 4 9 4 C11.3301497 8.53084664 14.06445968 10.90180868 18 14 C18.66 14.66 19.32 15.32 20 16 C14.99738448 16.78988666 14.99738448 16.78988666 12 16 C9.18735913 13.30704597 7.1545924 10.22606538 5 7 C4.34 6.34 3.68 5.68 3 5 C3.61488281 5.92232422 3.61488281 5.92232422 4.2421875 6.86328125 C7.62109375 11.93164062 7.62109375 11.93164062 11 17 C8.03 17.66 5.06 18.32 2 19 C1.6592518 17.14718166 1.32778217 15.29265605 1 13.4375 C0.814375 12.40496094 0.62875 11.37242188 0.4375 10.30859375 C0 7 0 7 0 0 Z " fill="#ECE5DB" transform="translate(42,104)"/>
<path d="M0 0 C1.50420964 2.80999162 2.46672309 5.49591012 3.3125 8.5625 C4.39522715 11.95578922 4.7551529 12.81209408 7.6875 15.0625 C8.450625 15.371875 9.21375 15.68125 10 16 C7.12469919 16.9584336 5.70950069 17.06656387 2.76953125 16.87890625 C1.96708984 16.83056641 1.16464844 16.78222656 0.33789062 16.73242188 C-0.49548828 16.67634766 -1.32886719 16.62027344 -2.1875 16.5625 C-3.03248047 16.51029297 -3.87746094 16.45808594 -4.74804688 16.40429688 C-6.83236299 16.27476311 -8.91623182 16.13806823 -11 16 C-9.18127004 8.41324151 -6.28159872 4.6403259 0 0 Z " fill="#F4F0E8" transform="translate(22,102)"/>
<path d="M0 0 C0.33 0 0.66 0 1 0 C1.08636719 0.81597656 1.17273437 1.63195313 1.26171875 2.47265625 C2.36669132 11.78889288 4.17307543 20.83224069 6.32299805 29.96508789 C7.50438965 35.11210705 8.27878764 39.71770795 8 45 C8.66 45 9.32 45 10 45 C10.19335938 44.39671875 10.38671875 43.7934375 10.5859375 43.171875 C10.84632812 42.37265625 11.10671875 41.5734375 11.375 40.75 C11.63023438 39.96109375 11.88546875 39.1721875 12.1484375 38.359375 C13 36 13 36 15 32 C15 36.29 15 40.58 15 45 C14.34 44.01 13.68 43.02 13 42 C12.01 43.65 11.02 45.3 10 47 C8.515 46.505 8.515 46.505 7 46 C7 45.34 7 44.68 7 44 C6.34 43.67 5.68 43.34 5 43 C4.67 42.34 4.34 41.68 4 41 C4.66 41 5.32 41 6 41 C5.01 37.37 4.02 33.74 3 30 C-0.63 30 -4.26 30 -8 30 C-8.66 31.32 -9.32 32.64 -10 34 C-9.67 32.35 -9.34 30.7 -9 29 C-9.66 28.67 -10.32 28.34 -11 28 C-10.01 28 -9.02 28 -8 28 C-6.515 22.555 -6.515 22.555 -5 17 C-3.89808099 21.40767604 -4.41293158 22.8922935 -6 27 C-3.03 27.33 -0.06 27.66 3 28 C2.34 25.69 1.68 23.38 1 21 C0.67 21 0.34 21 0 21 C0 14.07 0 7.14 0 0 Z " fill="#93816C" transform="translate(58,31)"/>
<path d="M0 0 C0.33 0 0.66 0 1 0 C0.33333333 9.33333333 -0.33333333 18.66666667 -1 28 C-0.01 23.71 0.98 19.42 2 15 C2.66 15.33 3.32 15.66 4 16 C3.50311992 24.02408469 2.98025099 32.01795622 2 40 C0.34385343 40.38218767 -1.32457024 40.71395102 -3 41 C-4 40 -4 40 -4.12841797 38.06640625 C-4.10120096 31.99819624 -3.76118694 26.03381719 -3.125 20 C-2.99182373 18.69724121 -2.99182373 18.69724121 -2.85595703 17.36816406 C-2.22840184 11.48965933 -1.34458031 5.76248703 0 0 Z " fill="#AEA08C" transform="translate(41,35)"/>
<path d="M0 0 C0.08196118 4.18001995 -0.10554296 7.92212105 -1 12 C-1.73605469 12.06058594 -2.47210938 12.12117188 -3.23046875 12.18359375 C-4.20628906 12.26738281 -5.18210937 12.35117188 -6.1875 12.4375 C-7.15042969 12.51871094 -8.11335938 12.59992188 -9.10546875 12.68359375 C-11.78649602 12.97666151 -14.3662986 13.42703754 -17 14 C-16.39647918 10.75347422 -15.60843372 7.89717874 -14 5 C-11.16955437 3.07156452 -8.24681728 2.03503853 -5 1 C-3 0 -3 0 0 0 Z " fill="#F2EEE7" transform="translate(104,100)"/>
<path d="M0 0 C0.97582031 0.00902344 1.95164062 0.01804687 2.95703125 0.02734375 C3.69308594 0.03894531 4.42914063 0.05054687 5.1875 0.0625 C5.1875 1.0525 5.1875 2.0425 5.1875 3.0625 C5.8475 3.0625 6.5075 3.0625 7.1875 3.0625 C7.3125 5.4375 7.3125 5.4375 7.1875 8.0625 C5.1875 10.0625 5.1875 10.0625 2.5859375 10.2578125 C1.58820312 10.23460938 0.59046875 10.21140625 -0.4375 10.1875 C-1.94183594 10.16042969 -1.94183594 10.16042969 -3.4765625 10.1328125 C-4.24742188 10.10960938 -5.01828125 10.08640625 -5.8125 10.0625 C-6.88775194 7.41021188 -7.90706151 4.77881546 -8.8125 2.0625 C-9.4725 1.7325 -10.1325 1.4025 -10.8125 1.0625 C-7.13862505 0.20951624 -3.7677607 -0.04539471 0 0 Z " fill="#F4D97A" transform="translate(54.8125,75.9375)"/>
<path d="M0 0 C0.66 0.99 1.32 1.98 2 3 C4.41607417 3.79798218 4.41607417 3.79798218 7.125 4.1875 C8.03507812 4.34605469 8.94515625 4.50460938 9.8828125 4.66796875 C10.58148438 4.77753906 11.28015625 4.88710937 12 5 C12 7.97 12 10.94 12 14 C7.71 13.67 3.42 13.34 -1 13 C-0.67 8.71 -0.34 4.42 0 0 Z " fill="#C1C6A5" transform="translate(116,100)"/>
<path d="M0 0 C1.24652344 -0.01417969 2.49304688 -0.02835937 3.77734375 -0.04296875 C7.0625 0.1875 7.0625 0.1875 10.0625 2.1875 C9.0725 2.8475 8.0825 3.5075 7.0625 4.1875 C7.3925 4.5175 7.7225 4.8475 8.0625 5.1875 C8.64257566 12.38043821 8.64257566 12.38043821 6.625 15.1875 C2.81677974 16.67363474 -0.89607792 16.5932026 -4.9375 16.1875 C-5.5975 15.8575 -6.2575 15.5275 -6.9375 15.1875 C-7.3515625 13.12109375 -7.3515625 13.12109375 -7.5625 10.625 C-7.63726562 9.79871094 -7.71203125 8.97242187 -7.7890625 8.12109375 C-7.86253906 7.16396484 -7.86253906 7.16396484 -7.9375 6.1875 C-7.6075 6.1875 -7.2775 6.1875 -6.9375 6.1875 C-6.6075 8.8275 -6.2775 11.4675 -5.9375 14.1875 C-0.4925 13.6925 -0.4925 13.6925 5.0625 13.1875 C5.7225 11.2075 6.3825 9.2275 7.0625 7.1875 C6.4025 7.1875 5.7425 7.1875 5.0625 7.1875 C5.0625 6.1975 5.0625 5.2075 5.0625 4.1875 C-0.2175 4.1875 -5.4975 4.1875 -10.9375 4.1875 C-10.2775 3.8575 -9.6175 3.5275 -8.9375 3.1875 C-8.9375 2.5275 -8.9375 1.8675 -8.9375 1.1875 C-5.98162889 -0.29043555 -3.28752355 0.01696349 0 0 Z " fill="#806540" transform="translate(54.9375,71.8125)"/>
<path d="M0 0 C0.66 0 1.32 0 2 0 C2.33 2.64 2.66 5.28 3 8 C3.804375 7.67 4.60875 7.34 5.4375 7 C8 6 8 6 9 6 C9.66 10.62 10.32 15.24 11 20 C6.96498481 15.96498481 6.22808186 14.32168808 5 9 C-1.20507614 13.58379734 -4.34588823 17.40142404 -6 25 C-5.34 25.33 -4.68 25.66 -4 26 C-4.66 26 -5.32 26 -6 26 C-6.33 26.99 -6.66 27.98 -7 29 C-7 28.34 -7 27.68 -7 27 C-8.98 27.33 -10.96 27.66 -13 28 C-9.25 25 -9.25 25 -7 25 C-7 23.02 -7 21.04 -7 19 C-7.66 19.99 -8.32 20.98 -9 22 C-9.66 21.67 -10.32 21.34 -11 21 C-7.52554745 14.17518248 -7.52554745 14.17518248 -4.9375 13.3125 C-4.298125 13.209375 -3.65875 13.10625 -3 13 C-0.75334094 11.07429224 -0.0553139 9.68259712 0.18359375 6.734375 C0.18713604 4.48147862 0.12974316 2.24888146 0 0 Z " fill="#AA9C88" transform="translate(17,94)"/>
<path d="M0 0 C2 2 2 2 2.125 4.625 C2.08375 5.40875 2.0425 6.1925 2 7 C-1.21182149 8.90608098 -3.53882603 9.22266247 -7.25 9.125 C-8.14203125 9.10695313 -9.0340625 9.08890625 -9.953125 9.0703125 C-10.96632813 9.03550781 -10.96632813 9.03550781 -12 9 C-11.6875 5.625 -11.6875 5.625 -11 2 C-6.93150591 -0.71232939 -4.83523216 -0.30699887 0 0 Z " fill="#E1C7AF" transform="translate(78,96)"/>
<path d="M0 0 C1.98 0 3.96 0 6 0 C5.67 1.32 5.34 2.64 5 4 C4.01 4 3.02 4 2 4 C2.66 5.32 3.32 6.64 4 8 C4.66 7.01 5.32 6.02 6 5 C7 6 7 6 7.0625 9.0625 C7.041875 10.031875 7.02125 11.00125 7 12 C4.525 11.01 4.525 11.01 2 10 C1.67 14.62 1.34 19.24 1 24 C0.67 24 0.34 24 0 24 C-2.79080349 17.04931961 -3.63419196 10.45491562 -4 3 C-3.01 2.67 -2.02 2.34 -1 2 C-0.67 1.34 -0.34 0.68 0 0 Z " fill="#9A8770" transform="translate(108,36)"/>
<path d="M0 0 C0.66 0.33 1.32 0.66 2 1 C2.33 7.27 2.66 13.54 3 20 C6.96 18.515 6.96 18.515 11 17 C10.05125 15.96875 9.1025 14.9375 8.125 13.875 C5.43081545 10.75508346 3.98935284 8.05634665 3 4 C5.91228568 6.74586935 8.26746724 9.31972189 10.4375 12.6875 C12.76499656 16.09720834 14.8987163 17.14159178 19 18 C19 18.33 19 18.66 19 19 C16.58424393 19.50478485 14.16755639 20.00397642 11.75 20.5 C11.06808594 20.64308594 10.38617188 20.78617188 9.68359375 20.93359375 C6.35366879 21.61251049 3.41667449 22 0 22 C0 22.99 0 23.98 0 25 C-0.66 25 -1.32 25 -2 25 C-2 22.03 -2 19.06 -2 16 C-1.67 17.32 -1.34 18.64 -1 20 C-0.34 20 0.32 20 1 20 C0.84789062 19.48695312 0.69578125 18.97390625 0.5390625 18.4453125 C-0.16282938 15.2613682 -0.38745619 12.12595669 -0.625 8.875 C-0.72039063 7.63492188 -0.81578125 6.39484375 -0.9140625 5.1171875 C-1 2 -1 2 0 0 Z " fill="#968675" transform="translate(41,103)"/>
<path d="M0 0 C1.8125 1.625 1.8125 1.625 3 4 C2.9375 7.125 2.9375 7.125 2 10 C-1.05429117 12.48868169 -4.19181728 12.17309921 -8 12 C-8 8.37 -8 4.74 -8 1 C-4 0 -4 0 0 0 Z " fill="#E2C973" transform="translate(97,71)"/>
<path d="M0 0 C1.37562854 1.28965176 2.70766393 2.62689293 4 4 C4 4.66 4 5.32 4 6 C5.65 6.33 7.3 6.66 9 7 C9 5.02 9 3.04 9 1 C10.66666667 2.66666667 12.33333333 4.33333333 14 6 C14.99 6 15.98 6 17 6 C17.33 7.65 17.66 9.3 18 11 C17.113125 11.28875 16.22625 11.5775 15.3125 11.875 C12.49617576 12.83148748 9.74916844 13.86798946 7 15 C3.54060626 11.19466689 2.19815776 7.97696301 1 3 C0.67 2.01 0.34 1.02 0 0 Z " fill="#9E8B75" transform="translate(96,25)"/>
<path d="M0 0 C8.25999351 6.8023476 13.48125534 19.51871194 14.6875 30 C14.8022897 31.33246081 14.9104227 32.66560711 15 34 C10.65532154 28.62087428 8.37344046 22.51596529 6.0625 16.07421875 C5.12820167 13.65374351 5.12820167 13.65374351 2 13 C1 10 1 10 1.9375 7.8125 C2.288125 7.214375 2.63875 6.61625 3 6 C2.2575 5.071875 2.2575 5.071875 1.5 4.125 C0 2 0 2 0 0 Z " fill="#D0CAC2" transform="translate(109,16)"/>
<path d="M0 0 C2.76223278 2.76223278 2.57856291 5.20706617 3 9 C3.66 8.67 4.32 8.34 5 8 C5.33 11.63 5.66 15.26 6 19 C2.7 19 -0.6 19 -4 19 C-3.690625 18.071875 -3.38125 17.14375 -3.0625 16.1875 C-1.8203522 11.92745791 -1.54067839 7.67057022 -1.24609375 3.2578125 C-1 1 -1 1 0 0 Z " fill="#D5CEBD" transform="translate(55,40)"/>
<path d="M0 0 C1 3 1 3 1 7 C1.99 6.01 2.98 5.02 4 4 C4.06058594 5.04800781 4.12117188 6.09601563 4.18359375 7.17578125 C4.26801738 8.55470048 4.35266447 9.93360605 4.4375 11.3125 C4.47681641 12.00279297 4.51613281 12.69308594 4.55664062 13.40429688 C4.74927415 16.47161535 5.02322717 19.06968152 6 22 C4.0625 25.1875 4.0625 25.1875 2 28 C0.90101298 24.70303895 1.12875556 23.59505097 1.9375 20.3125 C2.13214844 19.50425781 2.32679687 18.69601563 2.52734375 17.86328125 C2.76130859 16.94095703 2.76130859 16.94095703 3 16 C0.69 15.67 -1.62 15.34 -4 15 C-4 14.34 -4 13.68 -4 13 C-3.34 13 -2.68 13 -2 13 C-1.93941406 12.14535156 -1.87882812 11.29070312 -1.81640625 10.41015625 C-1.69072266 8.75306641 -1.69072266 8.75306641 -1.5625 7.0625 C-1.48128906 5.96035156 -1.40007812 4.85820313 -1.31640625 3.72265625 C-1 1 -1 1 0 0 Z " fill="#B9AE9E" transform="translate(105,99)"/>
<path d="M0 0 C-0.33 4.95 -0.66 9.9 -1 15 C-5 13 -5 13 -7 10 C-7.1953125 7.73828125 -7.1953125 7.73828125 -7.125 5.3125 C-7.10695313 4.50425781 -7.08890625 3.69601563 -7.0703125 2.86328125 C-7.04710938 2.24839844 -7.02390625 1.63351563 -7 1 C-3.375 -1.125 -3.375 -1.125 0 0 Z " fill="#F2EEDE" transform="translate(25,79)"/>
<path d="M0 0 C-1.03004175 2.91393389 -2.15090953 5.51083975 -4 8 C-6.74551449 9.30988287 -8.93552004 9.59140267 -12 10 C-12 7.36 -12 4.72 -12 2 C-3.38461538 -1.69230769 -3.38461538 -1.69230769 0 0 Z " fill="#F0EAE0" transform="translate(89,107)"/>
<path d="M0 0 C0.33 0 0.66 0 1 0 C1 2.97 1 5.94 1 9 C1.33 7.35 1.66 5.7 2 4 C2.33 4 2.66 4 3 4 C2.67 11.59 2.34 19.18 2 27 C1.01 25.68 0.02 24.36 -1 23 C-1.33 22.67 -1.66 22.34 -2 22 C-2.04063832 20.33382885 -2.042721 18.66611905 -2 17 C-2.639375 16.7525 -3.27875 16.505 -3.9375 16.25 C-6 15 -6 15 -6.75 12.875 C-6.8325 12.25625 -6.915 11.6375 -7 11 C-5.02 12.65 -3.04 14.3 -1 16 C-1.01160156 15.34773438 -1.02320313 14.69546875 -1.03515625 14.0234375 C-1.08470994 9.2238086 -0.99413751 4.72215315 0 0 Z " fill="#84715B" transform="translate(25,78)"/>
<path d="M0 0 C2.78216867 2.78216867 3.1415213 5.96854344 4 9.6875 C4.33216359 11.08751763 4.66548889 12.48726017 5 13.88671875 C5.16387207 14.57338623 5.32774414 15.26005371 5.49658203 15.9675293 C6.53053007 20.14193156 7.7423954 24.24149757 9.125 28.3125 C10 31 10 31 10 33 C7.525 33.495 7.525 33.495 5 34 C4.96132812 32.65421875 4.96132812 32.65421875 4.921875 31.28125 C4.52571334 22.5656934 3.16029411 14.67033878 0.83984375 6.265625 C0 3 0 3 0 0 Z " fill="#CBC3B2" transform="translate(89,22)"/>
<path d="M0 0 C-0.33 1.32 -0.66 2.64 -1 4 C-3.43695715 4.22181406 -5.873526 4.42791119 -8.3125 4.625 C-9.34793945 4.72167969 -9.34793945 4.72167969 -10.40429688 4.8203125 C-14.2559972 5.11802847 -15.68854416 5.20763723 -19 3 C-14.61121269 -1.38878731 -5.88476938 -0.10699581 0 0 Z " fill="#F8F5F0" transform="translate(108,115)"/>
<path d="M0 0 C4.61651485 1.53883828 6.41265909 5.11898864 9 9 C6.03 9.66 3.06 10.32 0 11 C-0.19406478 9.35492782 -0.38007935 7.70890406 -0.5625 6.0625 C-0.66691406 5.14597656 -0.77132812 4.22945313 -0.87890625 3.28515625 C-0.91886719 2.53105469 -0.95882812 1.77695313 -1 1 C-0.67 0.67 -0.34 0.34 0 0 Z " fill="#F7F4EF" transform="translate(44,112)"/>
<path d="M0 0 C0.99 0 1.98 0 3 0 C3.5878125 1.7015625 3.5878125 1.7015625 4.1875 3.4375 C5.0846875 5.2009375 5.0846875 5.2009375 6 7 C7.65821773 7.37309899 9.32577014 7.70700977 11 8 C12.875 10.9375 12.875 10.9375 14 14 C13.67 14.66 13.34 15.32 13 16 C12.67 15.01 12.34 14.02 12 13 C11.01 13 10.02 13 9 13 C9 11.68 9 10.36 9 9 C8.01 9 7.02 9 6 9 C5.67 9.66 5.34 10.32 5 11 C3.515 8.03 3.515 8.03 2 5 C2 6.98 2 8.96 2 11 C0.68 10.34 -0.64 9.68 -2 9 C-1.34 6.03 -0.68 3.06 0 0 Z " fill="#6E5238" transform="translate(104,22)"/>
<path d="M0 0 C0.33 0 0.66 0 1 0 C2.1741788 9.03698325 3.28994872 17.86661545 3 27 C-1.52208368 22.47791632 -1.14388237 15.71296378 -1.1875 9.6875 C-1.16809267 6.09714361 -1.13599173 3.40797519 0 0 Z " fill="#B9AB96" transform="translate(28,88)"/>
<path d="M0 0 C0.33 0 0.66 0 1 0 C1.33 8.58 1.66 17.16 2 26 C0.00609999 22.01219998 -0.22686963 20.52852428 -0.125 16.25 C-0.10695313 15.26515625 -0.08890625 14.2803125 -0.0703125 13.265625 C-0.04710937 12.51796875 -0.02390625 11.7703125 0 11 C-0.66 11 -1.32 11 -2 11 C-2.66 14.3 -3.32 17.6 -4 21 C-4.33 21 -4.66 21 -5 21 C-3.29787234 3.29787234 -3.29787234 3.29787234 0 0 Z " fill="#A19382" transform="translate(5,72)"/>
<path d="M0 0 C1.3968102 2.42113767 2.02946252 4.20202868 2.4375 7 C3.03015497 10.16082653 3.89762887 11.62340655 6 14 C6.99 12.02 7.98 10.04 9 8 C10.32 8.33 11.64 8.66 13 9 C12.01 9.33 11.02 9.66 10 10 C9.67 12.97 9.34 15.94 9 19 C3.84573547 16.64376478 1.34599263 13.00235005 -1 8 C-1.61886229 5.59682672 -1.84424802 3.49203164 -2 1 C-1.34 0.67 -0.68 0.34 0 0 Z " fill="#968671" transform="translate(9,70)"/>
<path d="M0 0 C-0.33 1.65 -0.66 3.3 -1 5 C-4.3 5 -7.6 5 -11 5 C-9.27282161 -1.90871354 -6.18171746 -1.16636179 0 0 Z " fill="#FAEAB2" transform="translate(61,81)"/>
<path d="M0 0 C2.9375 0.8125 2.9375 0.8125 6 2 C6.33 2.99 6.66 3.98 7 5 C7.66 5.33 8.32 5.66 9 6 C13.08370323 12.18389347 13.08370323 12.18389347 12.75 15.4375 C12.5025 15.953125 12.255 16.46875 12 17 C7.81588995 15.60529665 7.41437187 13.4933497 5.4375 9.625 C3.72276363 6.29878019 2.07629698 3.11444547 0 0 Z " fill="#E3DCD3" transform="translate(100,9)"/>
<path d="M0 0 C0.74765625 -0.020625 1.4953125 -0.04125 2.265625 -0.0625 C7.55320388 -0.09934724 11.1503549 0.86887913 15.875 3.25 C15.875 3.91 15.875 4.57 15.875 5.25 C13.895 5.58 11.915 5.91 9.875 6.25 C9.545 5.59 9.215 4.93 8.875 4.25 C4.50882916 1.7940289 -0.2370486 1.65540126 -5.125 2.25 C-7.34351595 3.19411952 -7.34351595 3.19411952 -9.125 4.25 C-9.125 -1.61595818 -4.70843126 0.03149452 0 0 Z " fill="#FAFAF5" transform="translate(75.125,-0.25)"/>
<path d="M0 0 C1.92408575 2.88612862 2.27338912 3.7521161 2.5625 7 C2.8035815 9.59777617 3.16030532 11.48091597 4 14 C3.66015625 16.48046875 3.66015625 16.48046875 3.0625 19.1875 C2.86785156 20.08855469 2.67320313 20.98960938 2.47265625 21.91796875 C2.23869141 22.94857422 2.23869141 22.94857422 2 24 C1.34 24 0.68 24 0 24 C-0.125 16.25 -0.125 16.25 1 14 C0.45660396 12.05900649 0.45660396 12.05900649 -0.4375 10 C-2 6.18834081 -2 6.18834081 -2 4 C-1.34 4 -0.68 4 0 4 C0 2.68 0 1.36 0 0 Z " fill="#E4DCCB" transform="translate(103,40)"/>
<path d="M0 0 C0.33 0 0.66 0 1 0 C1.33 1.65 1.66 3.3 2 5 C2.66 5 3.32 5 4 5 C4.66 10.28 5.32 15.56 6 21 C3.3144406 18.3144406 2.93950026 15.62378672 2 12 C1.67 15.3 1.34 18.6 1 22 C0.67 22 0.34 22 0 22 C0 14.74 0 7.48 0 0 Z " fill="#7E6B57" transform="translate(119,62)"/>
<path d="M0 0 C0.33 0 0.66 0 1 0 C1.61632529 7.89238769 0.00579883 13.74945301 -3 21 C-3.58912732 22.56032466 -4.17316363 24.12258983 -4.75 25.6875 C-5.1625 26.780625 -5.575 27.87375 -6 29 C-7.32046249 25.03861254 -6.20191126 22.1957992 -5.125 18.3125 C-3.96424245 14.07373364 -2.94138027 9.98559301 -2.4921875 5.60546875 C-2 2 -2 2 0 0 Z " fill="#8F806B" transform="translate(118,89)"/>
<path d="M0 0 C0.33 0 0.66 0 1 0 C1.16858098 2.0831793 1.33479255 4.16655044 1.5 6.25 C1.5928125 7.41015625 1.685625 8.5703125 1.78125 9.765625 C1.94404644 12.17268658 2 14.58743951 2 17 C1.34 17 0.68 17 0 17 C-0.33 18.65 -0.66 20.3 -1 22 C-1.99 22 -2.98 22 -4 22 C-4 21.34 -4 20.68 -4 20 C-3.34 20 -2.68 20 -2 20 C-2 15.05 -2 10.1 -2 5 C-1.67 5 -1.34 5 -1 5 C-0.67 3.35 -0.34 1.7 0 0 Z " fill="#DED6C9" transform="translate(40,106)"/>
<path d="M0 0 C0.66 1.32 1.32 2.64 2 4 C2.99 4 3.98 4 5 4 C5.33 3.01 5.66 2.02 6 1 C6.33 2.32 6.66 3.64 7 5 C6.360625 5.103125 5.72125 5.20625 5.0625 5.3125 C4.381875 5.539375 3.70125 5.76625 3 6 C2.67 6.99 2.34 7.98 2 9 C2 8.01 2 7.02 2 6 C-0.97 6.66 -3.94 7.32 -7 8 C-6.67 9.65 -6.34 11.3 -6 13 C-8.3129482 10.6870518 -8.49580975 9.52095125 -9.125 6.375 C-9.29257813 5.55773438 -9.46015625 4.74046875 -9.6328125 3.8984375 C-9.75398438 3.27195313 -9.87515625 2.64546875 -10 2 C-9.34 3.32 -8.68 4.64 -8 6 C-3.545 5.505 -3.545 5.505 1 5 C0.67 3.35 0.34 1.7 0 0 Z " fill="#9B8C78" transform="translate(98,50)"/>
<path d="M0 0 C0.33 0 0.66 0 1 0 C1.33 5.28 1.66 10.56 2 16 C0.02 16 -1.96 16 -4 16 C-2.68 10.72 -1.36 5.44 0 0 Z " fill="#FBF6E6" transform="translate(55,43)"/>
<path d="M0 0 C0.33 0 0.66 0 1 0 C1.86589563 9.94176463 0.15965495 16.47735567 -5 25 C-5.99 24.34 -6.98 23.68 -8 23 C-6.73046875 21.53515625 -5.4609375 20.0703125 -4.19140625 18.60546875 C-1.87568027 15.48493309 -1.78233763 12.25105708 -1.5 8.5 C-1.26621969 5.39406158 -0.98926426 2.96779278 0 0 Z " fill="#725A41" transform="translate(110,75)"/>
<path d="M0 0 C1.10191901 4.40767604 0.58706842 5.8922935 -1 10 C2.3 10.33 5.6 10.66 9 11 C8.67 11.66 8.34 12.32 8 13 C4.37 13 0.74 13 -3 13 C-3.66 14.32 -4.32 15.64 -5 17 C-4.67 15.35 -4.34 13.7 -4 12 C-4.66 11.67 -5.32 11.34 -6 11 C-5.01 11 -4.02 11 -3 11 C-2.01 7.37 -1.02 3.74 0 0 Z " fill="#B5A996" transform="translate(53,48)"/>
<path d="M0 0 C0.33 0.99 0.66 1.98 1 3 C2.65 2.01 4.3 1.02 6 0 C4.50723624 5.39691512 2.80304155 10.69905784 1 16 C-1.49310643 12.26034036 -1.0603261 10.70929359 -0.625 6.3125 C-0.51414062 5.13300781 -0.40328125 3.95351563 -0.2890625 2.73828125 C-0.19367187 1.83464844 -0.09828125 0.93101563 0 0 Z " fill="#8E7968" transform="translate(9,23)"/>
<path d="M0 0 C1.32 0.66 2.64 1.32 4 2 C3.01 4.97 2.02 7.94 1 11 C1.66 11.33 2.32 11.66 3 12 C2.34 12 1.68 12 1 12 C0.67 12.99 0.34 13.98 0 15 C0 14.34 0 13.68 0 13 C-1.98 13.33 -3.96 13.66 -6 14 C-2.25 11 -2.25 11 0 11 C0 9.02 0 7.04 0 5 C-0.99 6.485 -0.99 6.485 -2 8 C-2.66 7.67 -3.32 7.34 -4 7 C-2.68 4.69 -1.36 2.38 0 0 Z " fill="#998A7A" transform="translate(10,108)"/>
<path d="M0 0 C0.33 2.97 0.66 5.94 1 9 C0.67 8.34 0.34 7.68 0 7 C-0.825 7.165 -1.65 7.33 -2.5 7.5 C-6.41272317 8.05896045 -10.05183173 8.06807187 -14 8 C-13.360625 7.71125 -12.72125 7.4225 -12.0625 7.125 C-9.84793921 6.17176549 -9.84793921 6.17176549 -9 4 C-7.35 4.33 -5.7 4.66 -4 5 C-4 4.34 -4 3.68 -4 3 C-4.66 2.34 -5.32 1.68 -6 1 C-1.125 0 -1.125 0 0 0 Z " fill="#8F8969" transform="translate(35,119)"/>
<path d="M0 0 C0.33 0 0.66 0 1 0 C0.9617154 11.65766007 0.9617154 11.65766007 -3.0625 16.25 C-4.01652696 17.19280311 -4.98732584 18.12049094 -6 19 C-6 13.41485122 -4.33761789 9.35341464 -1 5 C-0.28566879 2.35065178 -0.28566879 2.35065178 0 0 Z " fill="#EFE9E2" transform="translate(7,39)"/>
<path d="M0 0 C0.66 0.33 1.32 0.66 2 1 C-0.2308505 5.58563713 -2.48511231 6.84070589 -7 9 C-7.33 9.99 -7.66 10.98 -8 12 C-10.0625 13.6875 -10.0625 13.6875 -12 15 C-12.66 14.67 -13.32 14.34 -14 14 C-12.60919892 12.41224451 -11.21211596 10.82999061 -9.8125 9.25 C-8.64654297 7.92742188 -8.64654297 7.92742188 -7.45703125 6.578125 C-5.11544754 4.12113732 -2.69841735 2.05137234 0 0 Z " fill="#F2EEE9" transform="translate(31,6)"/>
<path d="M0 0 C0.33 0.66 0.66 1.32 1 2 C3.02463255 2.65213292 3.02463255 2.65213292 5 3 C-1.8165735 4.7879537 -7.96517526 5.23668569 -15 5 C-15 4.67 -15 4.34 -15 4 C-13.35 4 -11.7 4 -10 4 C-10 3.34 -10 2.68 -10 2 C-6.7 1.34 -3.4 0.68 0 0 Z " fill="#F2E7D7" transform="translate(79,103)"/>
<path d="M0 0 C2.78159039 1.39079519 2.92225922 2.93712128 4 5.8125 C5.19411528 8.97037517 6.4366633 12.00593105 8 15 C4.87386607 12.03839944 2.95216435 9.90432869 1 6 C0.67 9.96 0.34 13.92 0 18 C-0.33 18 -0.66 18 -1 18 C-1.02690844 15.37493198 -1.04679404 12.75013827 -1.0625 10.125 C-1.07087891 9.37863281 -1.07925781 8.63226563 -1.08789062 7.86328125 C-1.11328125 2.2265625 -1.11328125 2.2265625 0 0 Z " fill="#C5BAA8" transform="translate(9,48)"/>
<path d="M0 0 C4.29 0 8.58 0 13 0 C13.33 1.65 13.66 3.3 14 5 C9.16371695 4.00956295 4.52381127 3.04301154 0 1 C0 0.67 0 0.34 0 0 Z " fill="#988372" transform="translate(84,0)"/>
<path d="M0 0 C4.83152945 0.55420485 9.51428635 0.64089861 14.375 0.5625 C14.375 0.8925 14.375 1.2225 14.375 1.5625 C12.18847261 1.90215474 10.00071975 2.23392477 7.8125 2.5625 C5.98525391 2.8409375 5.98525391 2.8409375 4.12109375 3.125 C0.49872152 3.54805077 -2.98212046 3.63751425 -6.625 3.5625 C-6.955 2.5725 -7.285 1.5825 -7.625 0.5625 C-4.51920224 -0.47276592 -3.1695372 -0.40751193 0 0 Z " fill="#EDE4DB" transform="translate(52.625,123.4375)"/>
<path d="M0 0 C3.63 0 7.26 0 11 0 C11 1.32 11 2.64 11 4 C7.04 4 3.08 4 -1 4 C-0.67 2.68 -0.34 1.36 0 0 Z " fill="#B8BB9A" transform="translate(117,105)"/>
<path d="M0 0 C0 2.64 0 5.28 0 8 C1.65 8.33 3.3 8.66 5 9 C5 9.33 5 9.66 5 10 C2.36 10.33 -0.28 10.66 -3 11 C-3.33 7.7 -3.66 4.4 -4 1 C-2 0 -2 0 0 0 Z " fill="#E6DECF" transform="translate(95,57)"/>
<path d="M0 0 C0.33 0.99 0.66 1.98 1 3 C1.53109375 2.83628906 2.0621875 2.67257812 2.609375 2.50390625 C5.53876764 1.88643623 8.25822936 1.90498075 11.25 1.9375 C12.32765625 1.94652344 13.4053125 1.95554688 14.515625 1.96484375 C15.33546875 1.97644531 16.1553125 1.98804688 17 2 C17 2.33 17 2.66 17 3 C16.11957031 3.10957031 15.23914063 3.21914062 14.33203125 3.33203125 C13.17058594 3.49058594 12.00914063 3.64914063 10.8125 3.8125 C9.66394531 3.96332031 8.51539063 4.11414063 7.33203125 4.26953125 C3.98163973 5.00402505 1.8070271 6.07049926 -1 8 C-0.67 5.36 -0.34 2.72 0 0 Z " fill="#C3B4A9" transform="translate(2,2)"/>
<path d="M0 0 C0.66 0 1.32 0 2 0 C2 0.66 2 1.32 2 2 C2.66 2 3.32 2 4 2 C4.33 4.31 4.66 6.62 5 9 C4.67 7.68 4.34 6.36 4 5 C3.01 5 2.02 5 1 5 C0.01 6.485 0.01 6.485 -1 8 C-1.66 6.68 -2.32 5.36 -3 4 C-3.99 4.495 -3.99 4.495 -5 5 C-5 4.01 -5 3.02 -5 2 C-2.525 2.495 -2.525 2.495 0 3 C0 2.01 0 1.02 0 0 Z " fill="#B6A897" transform="translate(113,37)"/>
<path d="M0 0 C1.98 0 3.96 0 6 0 C5.67 1.32 5.34 2.64 5 4 C3.35 3.67 1.7 3.34 0 3 C0 3.99 0 4.98 0 6 C-0.66 6 -1.32 6 -2 6 C-2 7.65 -2 9.3 -2 11 C-3.76462683 7.91190305 -4 6.76687864 -4 3 C-3.01 2.67 -2.02 2.34 -1 2 C-0.67 1.34 -0.34 0.68 0 0 Z " fill="#684C31" transform="translate(108,36)"/>
<path d="M0 0 C1.98497167 3.42323503 2.63032282 6.67181257 3.25 10.5625 C3.44078125 11.69816406 3.6315625 12.83382812 3.828125 14.00390625 C4 17 4 17 2 20 C0.2120463 13.1834265 -0.23668569 7.03482474 0 0 Z " fill="#B0A390" transform="translate(119,50)"/>
<path d="M0 0 C2.31 0 4.62 0 7 0 C7.33 0.99 7.66 1.98 8 3 C5.04335481 4.4783226 2.25770263 4.06032783 -1 4 C-0.67 2.68 -0.34 1.36 0 0 Z " fill="#FAEBAE" transform="translate(90,77)"/>
<path d="M0 0 C0.598125 0.20625 1.19625 0.4125 1.8125 0.625 C0.8225 0.955 -0.1675 1.285 -1.1875 1.625 C-0.5275 2.285 0.1325 2.945 0.8125 3.625 C-0.5075 3.625 -1.8275 3.625 -3.1875 3.625 C-3.1875 6.595 -3.1875 9.565 -3.1875 12.625 C-5.61272207 10.19977793 -5.48379254 9.4529321 -5.5 6.125 C-5.51675781 5.3309375 -5.53351563 4.536875 -5.55078125 3.71875 C-5.37095703 2.68234375 -5.37095703 2.68234375 -5.1875 1.625 C-2.1875 -0.375 -2.1875 -0.375 0 0 Z " fill="#8C724B" transform="translate(92.1875,68.375)"/>
<path d="M0 0 C0.33 0 0.66 0 1 0 C1.66 4.62 2.32 9.24 3 14 C2.34 14 1.68 14 1 14 C1 12.02 1 10.04 1 8 C-0.65 8 -2.3 8 -4 8 C-4 7.34 -4 6.68 -4 6 C-5.65 6 -7.3 6 -9 6 C-9 5.67 -9 5.34 -9 5 C-6.03 5.33 -3.06 5.66 0 6 C0 4.02 0 2.04 0 0 Z " fill="#928069" transform="translate(109,61)"/>
<path d="M0 0 C0.66 0.33 1.32 0.66 2 1 C2.33 1.99 2.66 2.98 3 4 C3.66 3.01 4.32 2.02 5 1 C6 2 6 2 6.0625 5.0625 C6.041875 6.031875 6.02125 7.00125 6 8 C5.21625 7.649375 4.4325 7.29875 3.625 6.9375 C2.75875 6.628125 1.8925 6.31875 1 6 C0.01 6.495 0.01 6.495 -1 7 C-0.67 4.69 -0.34 2.38 0 0 Z " fill="#755D46" transform="translate(109,40)"/>
<path d="M0 0 C2.62451617 2.62451617 2.5832868 4.4877828 3.125 8.125 C3.29257813 9.22070312 3.46015625 10.31640625 3.6328125 11.4453125 C3.75398438 12.28835937 3.87515625 13.13140625 4 14 C1.5444276 10.79046312 -0.50264201 7.78279913 -2 4 C-1.1875 1.625 -1.1875 1.625 0 0 Z " fill="#8E7D6C" transform="translate(120,36)"/>
<path d="M0 0 C3.43595166 1.52708963 6.11912454 3.59927045 9 6 C6.36 6 3.72 6 1 6 C-0.0625 4.125 -0.0625 4.125 -1 2 C-0.67 1.34 -0.34 0.68 0 0 Z " fill="#F2EDE6" transform="translate(53,114)"/>
<path d="M0 0 C0.33 0.99 0.66 1.98 1 3 C1.66 3 2.32 3 3 3 C2.01 7.95 1.02 12.9 0 18 C-0.33 18 -0.66 18 -1 18 C-1.09706112 11.88514973 -0.77040851 6.06696699 0 0 Z " fill="#F1EAD7" transform="translate(40,49)"/>
<path d="M0 0 C0.33 0 0.66 0 1 0 C1.144375 0.928125 1.28875 1.85625 1.4375 2.8125 C1.92100111 6.00725111 1.92100111 6.00725111 3 9 C1.0625 12.1875 1.0625 12.1875 -1 15 C-2.19126781 11.42619658 -1.7349445 9.49116698 -1.0625 5.8125 C-0.86785156 4.72582031 -0.67320313 3.63914062 -0.47265625 2.51953125 C-0.31667969 1.68808594 -0.16070312 0.85664062 0 0 Z " fill="#8E7A66" transform="translate(108,112)"/>
<path d="M0 0 C2.31 0.33 4.62 0.66 7 1 C6.319375 1.5775 5.63875 2.155 4.9375 2.75 C3.9784375 3.86375 3.9784375 3.86375 3 5 C3.13641377 7.21858253 3.13641377 7.21858253 4 9 C3.01 9 2.02 9 1 9 C-0.4783226 6.04335481 -0.06032783 3.25770263 0 0 Z " fill="#E5DACD" transform="translate(42,104)"/>
<path d="M0 0 C-0.28875 0.515625 -0.5775 1.03125 -0.875 1.5625 C-2.14974074 4.146337 -2.14974074 4.146337 -3 7.6875 C-3.33 8.780625 -3.66 9.87375 -4 11 C-4.99 11.495 -4.99 11.495 -6 12 C-6.48979592 4.65306122 -6.48979592 4.65306122 -4.125 1.5 C-2 0 -2 0 0 0 Z " fill="#AD9E91" transform="translate(6,44)"/>
<path d="M0 0 C0.33 1.32 0.66 2.64 1 4 C0.34 4 -0.32 4 -1 4 C-1.99 6.97 -2.98 9.94 -4 13 C-4.33 13 -4.66 13 -5 13 C-5.61538462 5.73846154 -5.61538462 5.73846154 -2.5 2 C-1.675 1.34 -0.85 0.68 0 0 Z " fill="#F6F4EE" transform="translate(5,55)"/>
<path d="M0 0 C0.33 0 0.66 0 1 0 C1.39121548 2.56095671 1.76333355 5.1223472 2.125 7.6875 C2.23714844 8.40873047 2.34929688 9.12996094 2.46484375 9.87304688 C3.05633932 14.19096451 3.06662636 17.11933494 1 21 C0.67 21 0.34 21 0 21 C0 14.07 0 7.14 0 0 Z " fill="#AB9D8A" transform="translate(58,31)"/>
<path d="M0 0 C-1.47692308 4.67692308 -1.47692308 4.67692308 -4.125 6.3125 C-5.053125 6.6528125 -5.053125 6.6528125 -6 7 C-6 5.02 -6 3.04 -6 1 C-4 0 -4 0 0 0 Z " fill="#AB998A" transform="translate(16,19)"/>
<path d="M0 0 C0.66 0.33 1.32 0.66 2 1 C1.67 5.29 1.34 9.58 1 14 C0.67 12.68 0.34 11.36 0 10 C-0.66 10 -1.32 10 -2 10 C-1.34 6.7 -0.68 3.4 0 0 Z " fill="#B4A894" transform="translate(43,50)"/>
<path d="M0 0 C4.24404412 3.88026891 7.10917547 8.04254346 10 13 C6.37114422 11.54845769 4.84567327 9.7599362 2.75 6.5 C1.96882813 5.30890625 1.96882813 5.30890625 1.171875 4.09375 C0 2 0 2 0 0 Z " fill="#7C6855" transform="translate(44,107)"/>
<path d="M0 0 C2.475 0.495 2.475 0.495 5 1 C5 1.66 5 2.32 5 3 C5.99 2.67 6.98 2.34 8 2 C7.67 2.99 7.34 3.98 7 5 C6.21625 4.79375 5.4325 4.5875 4.625 4.375 C3.325625 4.189375 3.325625 4.189375 2 4 C1.34 4.66 0.68 5.32 0 6 C0 4.02 0 2.04 0 0 Z " fill="#EFECE7" transform="translate(0,0)"/>
<path d="M0 0 C0.99 1.32 1.98 2.64 3 4 C2.67 4.66 2.34 5.32 2 6 C-0.33744294 6.46806645 -2.69739079 6.82669794 -5.0625 7.125 C-6.99802734 7.37636719 -6.99802734 7.37636719 -8.97265625 7.6328125 C-10.47119141 7.81457031 -10.47119141 7.81457031 -12 8 C-11.67 7.34 -11.34 6.68 -11 6 C-8.49609375 5.5859375 -8.49609375 5.5859375 -5.4375 5.375 C-4.42558594 5.30023438 -3.41367188 5.22546875 -2.37109375 5.1484375 C-1.58863281 5.09945312 -0.80617188 5.05046875 0 5 C0 3.35 0 1.7 0 0 Z " fill="#907E69" transform="translate(75,113)"/>
<path d="M0 0 C0.33 0 0.66 0 1 0 C1 4.29 1 8.58 1 13 C0.34 12.01 -0.32 11.02 -1 10 C-1.99 10.99 -2.98 11.98 -4 13 C-3.79503906 12.39671875 -3.59007813 11.7934375 -3.37890625 11.171875 C-2.97478516 9.97304687 -2.97478516 9.97304687 -2.5625 8.75 C-2.29566406 7.96109375 -2.02882813 7.1721875 -1.75390625 6.359375 C-1.08045292 4.25178012 -0.50849405 2.15246027 0 0 Z " fill="#86735E" transform="translate(72,63)"/>
<path d="M0 0 C0 0.33 0 0.66 0 1 C-1.11375 1.103125 -2.2275 1.20625 -3.375 1.3125 C-4.57125 1.539375 -5.7675 1.76625 -7 2 C-7.99 3.485 -7.99 3.485 -9 5 C-9.66 5 -10.32 5 -11 5 C-10.6875 3.125 -10.6875 3.125 -10 1 C-6.1496895 -1.56687367 -4.41430237 -0.83288724 0 0 Z " fill="#FCE89B" transform="translate(61,81)"/>
<path d="M0 0 C2.0625 1.75 2.0625 1.75 4 4 C3.75 6.25 3.75 6.25 3 8 C2.01 7.67 1.02 7.34 0 7 C-1.125 2.25 -1.125 2.25 0 0 Z " fill="#F6F5F0" transform="translate(109,18)"/>
<path d="M0 0 C0.66 0 1.32 0 2 0 C3.1875 2.75 3.1875 2.75 4 6 C3.01 7.32 2.02 8.64 1 10 C0.67 6.7 0.34 3.4 0 0 Z " fill="#F6F3ED" transform="translate(119,44)"/>
<path d="M0 0 C2.27057377 -0.05398987 4.54151288 -0.09278742 6.8125 -0.125 C8.07707031 -0.14820312 9.34164062 -0.17140625 10.64453125 -0.1953125 C14 0 14 0 17 2 C15.35 2.33 13.7 2.66 12 3 C12 2.34 12 1.68 12 1 C8.04 1 4.08 1 0 1 C0 0.67 0 0.34 0 0 Z " fill="#735A42" transform="translate(48,72)"/>
<path d="M0 0 C2.18975773 3.28463659 2.99806563 6.20696275 4 10 C2.68 10 1.36 10 0 10 C0 6.7 0 3.4 0 0 Z " fill="#ECE5D1" transform="translate(86,49)"/>
<path d="M0 0 C1.32 0 2.64 0 4 0 C4.66 1.32 5.32 2.64 6 4 C3.36 3.67 0.72 3.34 -2 3 C-1.34 2.01 -0.68 1.02 0 0 Z " fill="#F3F0E9" transform="translate(91,116)"/>
<path d="M0 0 C0 0.66 0 1.32 0 2 C-4.455 2.495 -4.455 2.495 -9 3 C-4 -2 -4 -2 0 0 Z " fill="#79624B" transform="translate(87,115)"/>
<path d="M0 0 C0.33 0 0.66 0 1 0 C1.33 3.63 1.66 7.26 2 11 C1.01 11 0.02 11 -1 11 C-0.67 7.37 -0.34 3.74 0 0 Z " fill="#F5EFDF" transform="translate(59,48)"/>
<path d="M0 0 C0.66 1.32 1.32 2.64 2 4 C2.99 4 3.98 4 5 4 C5.33 3.01 5.66 2.02 6 1 C6.33 2.32 6.66 3.64 7 5 C6.360625 5.103125 5.72125 5.20625 5.0625 5.3125 C4.381875 5.539375 3.70125 5.76625 3 6 C2.67 6.99 2.34 7.98 2 9 C1.34 6.03 0.68 3.06 0 0 Z " fill="#ADA18E" transform="translate(98,50)"/>
<path d="M0 0 C0.99 0.495 0.99 0.495 2 1 C2.59355614 3.64860427 2.74209269 6.29197322 3 9 C2.01 9.66 1.02 10.32 0 11 C0 7.37 0 3.74 0 0 Z " fill="#F8F3E2" transform="translate(117,51)"/>
<path d="M0 0 C3.23739279 1.6186964 4.42244771 4.84489543 6 8 C3.5625 7.1875 3.5625 7.1875 1 6 C0 3 0 3 0 0 Z M-2 3 C-1.01 4.485 -1.01 4.485 0 6 C-0.99 6.495 -0.99 6.495 -2 7 C-2 5.68 -2 4.36 -2 3 Z " fill="#CEC9BC" transform="translate(11,38)"/>
<path d="M0 0 C0.99 0 1.98 0 3 0 C3.33 1.65 3.66 3.3 4 5 C2.35 5.33 0.7 5.66 -1 6 C-0.67 4.02 -0.34 2.04 0 0 Z " fill="#8C745C" transform="translate(110,31)"/>
<path d="M0 0 C0.12375 0.639375 0.2475 1.27875 0.375 1.9375 C0.684375 2.9584375 0.684375 2.9584375 1 4 C1.66 4.33 2.32 4.66 3 5 C2.34 5 1.68 5 1 5 C0.67 5.99 0.34 6.98 0 8 C0 7.34 0 6.68 0 6 C-1.98 6.33 -3.96 6.66 -6 7 C-2.25 4 -2.25 4 0 4 C0 2.68 0 1.36 0 0 Z " fill="#807657" transform="translate(10,115)"/>
<path d="M0 0 C0.66 0 1.32 0 2 0 C2 2.31 2 4.62 2 7 C0.68 7.33 -0.64 7.66 -2 8 C-1.34 5.36 -0.68 2.72 0 0 Z " fill="#F0EAE2" transform="translate(3,83)"/>
<path d="M0 0 C1.65 0 3.3 0 5 0 C6.125 2.8125 6.125 2.8125 7 6 C6.01 7.485 6.01 7.485 5 9 C3.92474806 6.34771188 2.90543849 3.71631546 2 1 C1.34 0.67 0.68 0.34 0 0 Z " fill="#E1CB89" transform="translate(44,77)"/>
<path d="M0 0 C4.22797927 3.08290155 4.22797927 3.08290155 6 5 C6.375 7.8125 6.375 7.8125 6 10 C2.51668565 6.98112756 1.20842856 4.43090471 0 0 Z " fill="#EFE7D6" transform="translate(10,76)"/>
<path d="M0 0 C0.33 0.99 0.66 1.98 1 3 C1.66 3.33 2.32 3.66 3 4 C1.35 5.98 -0.3 7.96 -2 10 C-2 6.38970831 -1.03907418 3.44193324 0 0 Z " fill="#E8E2D9" transform="translate(3,48)"/>
<path d="M0 0 C3.96 0 7.92 0 12 0 C12 0.33 12 0.66 12 1 C8.37 1.66 4.74 2.32 1 3 C0.67 2.01 0.34 1.02 0 0 Z " fill="#FDFCFB" transform="translate(4,0)"/>
<path d="M0 0 C2 3.75 2 3.75 2 6 C1.34 6 0.68 6 0 6 C-0.33 6.66 -0.66 7.32 -1 8 C-1.33 5.69 -1.66 3.38 -2 1 C-1.34 0.67 -0.68 0.34 0 0 Z " fill="#C1B5A1" transform="translate(9,70)"/>
<path d="M0 0 C0.99 0 1.98 0 3 0 C4.06775224 1.96466413 5.06553465 3.96855359 6 6 C5.67 6.66 5.34 7.32 5 8 C4.67 7.01 4.34 6.02 4 5 C3.01 5 2.02 5 1 5 C0.67 3.35 0.34 1.7 0 0 Z " fill="#745B45" transform="translate(112,30)"/>
<path d="M0 0 C0 0.66 0 1.32 0 2 C-2.70879335 3.35439668 -5.00933268 3.06501451 -8 3 C-6.23110084 -0.53779831 -3.70375662 0 0 0 Z " fill="#654422" transform="translate(98,68)"/>
<path d="M0 0 C2.97 0.495 2.97 0.495 6 1 C4.8125 2.5625 4.8125 2.5625 3 4 C0.3125 3.6875 0.3125 3.6875 -2 3 C-1.34 2.01 -0.68 1.02 0 0 Z " fill="#DFD7CD" transform="translate(26,3)"/>
</svg>
