<?xml version="1.0" encoding="UTF-8"?>
<svg version="1.1" xmlns="http://www.w3.org/2000/svg" width="32" height="32">
<path d="M0 0 C10.56 0 21.12 0 32 0 C32 10.56 32 21.12 32 32 C21.44 32 10.88 32 0 32 C0 21.44 0 10.88 0 0 Z " fill="#E3DED0" transform="translate(0,0)"/>
<path d="M0 0 C0.86931152 0.01047363 1.73862305 0.02094727 2.63427734 0.03173828 C3.48199707 0.0367334 4.3297168 0.04172852 5.203125 0.046875 C6.28126465 0.06508301 7.3594043 0.08329102 8.47021484 0.10205078 C11.89396484 0.14330078 15.31771484 0.18455078 18.84521484 0.22705078 C18.84521484 8.80705078 18.84521484 17.38705078 18.84521484 26.22705078 C18.18521484 26.22705078 17.52521484 26.22705078 16.84521484 26.22705078 C16.84521484 22.92705078 16.84521484 19.62705078 16.84521484 16.22705078 C16.51521484 19.19705078 16.18521484 22.16705078 15.84521484 25.22705078 C14.85521484 25.55705078 13.86521484 25.88705078 12.84521484 26.22705078 C12.84521484 26.88705078 12.84521484 27.54705078 12.84521484 28.22705078 C10.85380924 28.60838377 8.85242407 28.94030661 6.84521484 29.22705078 C6.51521484 28.89705078 6.18521484 28.56705078 5.84521484 28.22705078 C5.22646484 28.43330078 4.60771484 28.63955078 3.97021484 28.85205078 C3.26896484 28.97580078 2.56771484 29.09955078 1.84521484 29.22705078 C0.22021484 27.85205078 0.22021484 27.85205078 -1.15478516 26.22705078 C-1.81478516 25.89705078 -2.47478516 25.56705078 -3.15478516 25.22705078 C-3.15478516 23.57705078 -3.15478516 21.92705078 -3.15478516 20.22705078 C-2.49478516 20.22705078 -1.83478516 20.22705078 -1.15478516 20.22705078 C-1.15478516 20.88705078 -1.15478516 21.54705078 -1.15478516 22.22705078 C0.16521484 22.22705078 1.48521484 22.22705078 2.84521484 22.22705078 C2.84521484 21.23705078 2.84521484 20.24705078 2.84521484 19.22705078 C4.49521484 18.89705078 6.14521484 18.56705078 7.84521484 18.22705078 C8.17521484 19.21705078 8.50521484 20.20705078 8.84521484 21.22705078 C9.29896484 20.73205078 9.75271484 20.23705078 10.22021484 19.72705078 C11.84521484 18.22705078 11.84521484 18.22705078 13.84521484 18.22705078 C14.17521484 17.56705078 14.50521484 16.90705078 14.84521484 16.22705078 C13.52521484 16.22705078 12.20521484 16.22705078 10.84521484 16.22705078 C10.84521484 15.56705078 10.84521484 14.90705078 10.84521484 14.22705078 C11.83521484 14.22705078 12.82521484 14.22705078 13.84521484 14.22705078 C13.84521484 13.56705078 13.84521484 12.90705078 13.84521484 12.22705078 C14.50521484 12.22705078 15.16521484 12.22705078 15.84521484 12.22705078 C15.18521484 10.57705078 14.52521484 8.92705078 13.84521484 7.22705078 C12.68710096 10.17434615 12.68710096 10.17434615 12.84521484 13.22705078 C12.06146484 13.33017578 11.27771484 13.43330078 10.47021484 13.53955078 C7.51476304 14.003001 7.51476304 14.003001 5.84521484 17.22705078 C4.85521484 17.22705078 3.86521484 17.22705078 2.84521484 17.22705078 C2.84521484 17.55705078 2.84521484 17.88705078 2.84521484 18.22705078 C0.86521484 18.22705078 -1.11478516 18.22705078 -3.15478516 18.22705078 C-3.48478516 20.86705078 -3.81478516 23.50705078 -4.15478516 26.22705078 C-8.17893855 19.08896917 -6.25681495 9.81771394 -4.15478516 2.22705078 C-2.15478516 0.22705078 -2.15478516 0.22705078 0 0 Z " fill="#F1EDE1" transform="translate(13.15478515625,-0.22705078125)"/>
<path d="M0 0 C1.5 1.25 1.5 1.25 3 3 C3 4.32 3 5.64 3 7 C2.34 7 1.68 7 1 7 C1 7.66 1 8.32 1 9 C0.01 9 -0.98 9 -2 9 C-2 9.66 -2 10.32 -2 11 C-0.68 11 0.64 11 2 11 C2 13.31 2 15.62 2 18 C1.67 18 1.34 18 1 18 C1 16.35 1 14.7 1 13 C0.34 13 -0.32 13 -1 13 C-1.33 13.99 -1.66 14.98 -2 16 C-2.66 16 -3.32 16 -4 16 C-4.66 15.34 -5.32 14.68 -6 14 C-7.32 14 -8.64 14 -10 14 C-10 14.99 -10 15.98 -10 17 C-11.32 17 -12.64 17 -14 17 C-14 16.34 -14 15.68 -14 15 C-14.66 15 -15.32 15 -16 15 C-16 16.65 -16 18.3 -16 20 C-16.33 20 -16.66 20 -17 20 C-17 17.03 -17 14.06 -17 11 C-16.34 10.67 -15.68 10.34 -15 10 C-15 10.66 -15 11.32 -15 12 C-13.68 12 -12.36 12 -11 12 C-11 10.35 -11 8.7 -11 7 C-10.01 8.32 -9.02 9.64 -8 11 C-6.04783565 9.04783565 -5.15173355 7.46800047 -4 5 C-3.34 5.33 -2.68 5.66 -2 6 C-2 6.66 -2 7.32 -2 8 C-1.34 8 -0.68 8 0 8 C-0.185625 7.05125 -0.37125 6.1025 -0.5625 5.125 C-1 2 -1 2 0 0 Z " fill="#CBBC9F" transform="translate(26,5)"/>
<path d="M0 0 C0 0.66 0 1.32 0 2 C0.45375 1.505 0.9075 1.01 1.375 0.5 C3 -1 3 -1 5 -1 C5.25 1.3125 5.25 1.3125 5 4 C1.85710448 7.03064925 -2.59786667 9.5739871 -7 10 C-8.625 8.625 -8.625 8.625 -10 7 C-10.66 6.67 -11.32 6.34 -12 6 C-12 4.35 -12 2.7 -12 1 C-11.34 1 -10.68 1 -10 1 C-10 1.66 -10 2.32 -10 3 C-8.68 3 -7.36 3 -6 3 C-6 2.01 -6 1.02 -6 0 C-2.25 -1.125 -2.25 -1.125 0 0 Z " fill="#FAF4E9" transform="translate(22,19)"/>
<path d="M0 0 C0.94875 0.04125 1.8975 0.0825 2.875 0.125 C4.30588528 2.98677057 3.47491697 5.05875773 2.875 8.125 C2.215 8.125 1.555 8.125 0.875 8.125 C-1.22732344 10.9934413 -1.22732344 10.9934413 -2.125 14.125 C-2.785 13.135 -3.445 12.145 -4.125 11.125 C-4.455 16.075 -4.785 21.025 -5.125 26.125 C-8.85805495 18.65889009 -7.30990086 10.01491976 -5.125 2.125 C-3.125 0.125 -3.125 0.125 0 0 Z " fill="#FCF9EB" transform="translate(14.125,-0.125)"/>
<path d="M0 0 C0.66 0.33 1.32 0.66 2 1 C1.67 4.3 1.34 7.6 1 11 C1.66 11 2.32 11 3 11 C3 12.98 3 14.96 3 17 C1.02 17 -0.96 17 -3 17 C-3 16.34 -3 15.68 -3 15 C-10.92 15.495 -10.92 15.495 -19 16 C-18.67 15.01 -18.34 14.02 -18 13 C-18.33 12.01 -18.66 11.02 -19 10 C-14.125 10.875 -14.125 10.875 -13 12 C-10.66055264 11.71269945 -8.3260857 11.38063221 -6 11 C-6.99 11.33 -7.98 11.66 -9 12 C-7.93354885 13.29633621 -7.93354885 13.29633621 -5.4375 13.0625 C-4.633125 13.041875 -3.82875 13.02125 -3 13 C-3 12.34 -3 11.68 -3 11 C-2.34 10.67 -1.68 10.34 -1 10 C-0.53248212 7.64400765 -0.53248212 7.64400765 -0.375 4.9375 C-0.30023437 4.01839844 -0.22546875 3.09929688 -0.1484375 2.15234375 C-0.09945313 1.44207031 -0.05046875 0.73179688 0 0 Z " fill="#CDC4B2" transform="translate(29,15)"/>
<path d="M0 0 C2.8002232 1.4001116 3.56776098 3.26572551 5 6 C5 6.99 5 7.98 5 9 C4.67 9.33 4.34 9.66 4 10 C4.80824219 9.855625 5.61648438 9.71125 6.44921875 9.5625 C7.51785156 9.376875 8.58648437 9.19125 9.6875 9 C10.74324219 8.814375 11.79898437 8.62875 12.88671875 8.4375 C15.64904062 8.04931926 18.21742043 7.91740024 21 8 C20.67 8.99 20.34 9.98 20 11 C11.42 11 2.84 11 -6 11 C-6 10.34 -6 9.68 -6 9 C-5.34 9 -4.68 9 -4 9 C-3.67 8.01 -3.34 7.02 -3 6 C-3 6.66 -3 7.32 -3 8 C-2.01 8 -1.02 8 0 8 C-0.185625 7.05125 -0.37125 6.1025 -0.5625 5.125 C-1 2 -1 2 0 0 Z " fill="#EBE1D6" transform="translate(6,21)"/>
<path d="M0 0 C2.64 0 5.28 0 8 0 C7.071875 1.2065625 7.071875 1.2065625 6.125 2.4375 C3.50185488 6.31640608 2.76958672 10.44323651 2 15 C1.34 14.67 0.68 14.34 0 14 C0 9.38 0 4.76 0 0 Z " fill="#A99688" transform="translate(0,1)"/>
<path d="M0 0 C2.64 0 5.28 0 8 0 C8 0.66 8 1.32 8 2 C8.66 2 9.32 2 10 2 C9.67 2.99 9.34 3.98 9 5 C6.36 5 3.72 5 1 5 C1 6.98 1 8.96 1 11 C0.67 11 0.34 11 0 11 C0 7.37 0 3.74 0 0 Z " fill="#E9E3D3" transform="translate(17,0)"/>
<path d="M0 0 C0.99 0 1.98 0 3 0 C3.33 3.63 3.66 7.26 4 11 C2.02 11 0.04 11 -2 11 C-2.625 7.625 -2.625 7.625 -3 4 C-2.34 3.34 -1.68 2.68 -1 2 C-0.67 2.66 -0.34 3.32 0 4 C0 2.68 0 1.36 0 0 Z " fill="#E5DFCF" transform="translate(12,7)"/>
<path d="M0 0 C4.875 0.875 4.875 0.875 6 2 C8.33944736 1.71269945 10.6739143 1.38063221 13 1 C12.01 1.33 11.02 1.66 10 2 C11.06645115 3.29633621 11.06645115 3.29633621 13.5625 3.0625 C14.366875 3.041875 15.17125 3.02125 16 3 C12.59648662 5.03219488 9.6767073 5.36891039 5.75 5.625 C4.67234375 5.69976563 3.5946875 5.77453125 2.484375 5.8515625 C1.66453125 5.90054687 0.8446875 5.94953125 0 6 C0.33 5.01 0.66 4.02 1 3 C0.67 2.01 0.34 1.02 0 0 Z " fill="#C1B4A5" transform="translate(10,25)"/>
<path d="M0 0 C2.31 0 4.62 0 7 0 C7 3.96 7 7.92 7 12 C6.34 11.01 5.68 10.02 5 9 C4.46375 8.525625 3.9275 8.05125 3.375 7.5625 C2 6 2 6 2 2 C1.34 2 0.68 2 0 2 C0 1.34 0 0.68 0 0 Z " fill="#F8F7F5" transform="translate(25,0)"/>
<path d="M0 0 C1.5 1.25 1.5 1.25 3 3 C3 4.32 3 5.64 3 7 C2.34 7 1.68 7 1 7 C1 7.66 1 8.32 1 9 C0.01 9 -0.98 9 -2 9 C-2 9.99 -2 10.98 -2 12 C-2.99 12 -3.98 12 -5 12 C-6 9 -6 9 -5.0625 6.8125 C-4.711875 6.214375 -4.36125 5.61625 -4 5 C-3.34 5.33 -2.68 5.66 -2 6 C-2 6.66 -2 7.32 -2 8 C-1.34 8 -0.68 8 0 8 C-0.185625 7.05125 -0.37125 6.1025 -0.5625 5.125 C-1 2 -1 2 0 0 Z " fill="#DCD4C2" transform="translate(26,5)"/>
<path d="M0 0 C0.33 0 0.66 0 1 0 C1.66 3.63 2.32 7.26 3 11 C0.03 11 -2.94 11 -6 11 C-6 10.34 -6 9.68 -6 9 C-5.34 9 -4.68 9 -4 9 C-3.67 8.01 -3.34 7.02 -3 6 C-3 6.66 -3 7.32 -3 8 C-2.01 8 -1.02 8 0 8 C-0.185625 7.05125 -0.37125 6.1025 -0.5625 5.125 C-1 2 -1 2 0 0 Z " fill="#ADA48A" transform="translate(6,21)"/>
<path d="M0 0 C0.99 0.33 1.98 0.66 3 1 C2.67 4.96 2.34 8.92 2 13 C1.01 13.33 0.02 13.66 -1 14 C-0.814375 13.278125 -0.62875 12.55625 -0.4375 11.8125 C0.02443905 8.84289183 -0.40292255 6.91075256 -1 4 C-0.5625 1.6875 -0.5625 1.6875 0 0 Z " fill="#FDFBF0" transform="translate(4,6)"/>
<path d="M0 0 C0.33 0.66 0.66 1.32 1 2 C3.52733235 2.65555119 3.52733235 2.65555119 6 3 C6 4.32 6 5.64 6 7 C4.68 7 3.36 7 2 7 C2 6.34 2 5.68 2 5 C1.34 5 0.68 5 0 5 C0 6.65 0 8.3 0 10 C-0.33 10 -0.66 10 -1 10 C-1.02689216 8.52093108 -1.04634621 7.04172517 -1.0625 5.5625 C-1.07410156 4.73878906 -1.08570313 3.91507813 -1.09765625 3.06640625 C-1 1 -1 1 0 0 Z " fill="#BDAA83" transform="translate(10,15)"/>
<path d="M0 0 C3.63 0 7.26 0 11 0 C10.67 1.65 10.34 3.3 10 5 C9.34 5 8.68 5 8 5 C8 5.66 8 6.32 8 7 C6.68 6.34 5.36 5.68 4 5 C4.99 4.01 5.98 3.02 7 2 C4.69 1.67 2.38 1.34 0 1 C0 0.67 0 0.34 0 0 Z " fill="#EDE8DD" transform="translate(0,0)"/>
<path d="M0 0 C0.66 0.66 1.32 1.32 2 2 C1.9765625 4.1640625 1.9765625 4.1640625 1.625 6.625 C1.51414063 7.44226563 1.40328125 8.25953125 1.2890625 9.1015625 C1.19367188 9.72804688 1.09828125 10.35453125 1 11 C0.34 10.67 -0.32 10.34 -1 10 C-1.02689216 8.52093108 -1.04634621 7.04172517 -1.0625 5.5625 C-1.07410156 4.73878906 -1.08570312 3.91507813 -1.09765625 3.06640625 C-1 1 -1 1 0 0 Z " fill="#AF9F90" transform="translate(1,5)"/>
<path d="M0 0 C4 4.625 4 4.625 4 8 C4.33 8.33 4.66 8.66 5 9 C4.01 9.33 3.02 9.66 2 10 C0.39644899 6.49223216 -0.22036864 3.85645121 0 0 Z " fill="#E3DDCF" transform="translate(7,22)"/>
<path d="M0 0 C1.5 1.25 1.5 1.25 3 3 C3 4.32 3 5.64 3 7 C2.01 7.33 1.02 7.66 0 8 C-1.125 2.25 -1.125 2.25 0 0 Z " fill="#97826C" transform="translate(26,5)"/>
<path d="M0 0 C0.33 0.66 0.66 1.32 1 2 C2.32 1.67 3.64 1.34 5 1 C4.67 1.99 4.34 2.98 4 4 C2.02 4.33 0.04 4.66 -2 5 C-2 4.34 -2 3.68 -2 3 C-1.34 3 -0.68 3 0 3 C0 2.01 0 1.02 0 0 Z " fill="#B9BB9D" transform="translate(2,27)"/>
<path d="M0 0 C0.99 0 1.98 0 3 0 C2.67 1.65 2.34 3.3 2 5 C0.35 4.67 -1.3 4.34 -3 4 C-1.6875 2 -1.6875 2 0 0 Z " fill="#ECDFCF" transform="translate(17,24)"/>
</svg>
